<svg width="201" height="200" viewBox="0 0 201 200" fill="none" xmlns="http://www.w3.org/2000/svg">
<g clip-path="url(#clip0)">
<path d="M100 137.209C85.8838 137.209 74.4187 125.744 74.4187 111.628C74.4187 97.5116 85.8838 86.0465 100 86.0465C114.116 86.0465 125.581 97.5116 125.581 111.628C125.581 125.744 114.116 137.209 100 137.209ZM100 90.6977C88.4652 90.6977 79.0699 100.093 79.0699 111.628C79.0699 123.163 88.4652 132.558 100 132.558C111.535 132.558 120.93 123.163 120.93 111.628C120.93 100.093 111.535 90.6977 100 90.6977Z" fill="#030422"/>
<path d="M151.163 200H48.8372V179.442C48.8372 163.488 61.279 150.093 77.1627 148.93L78.2093 148.86L78.9534 149.581C84.6279 155.093 92.093 158.14 99.9999 158.14C107.907 158.14 115.372 155.093 121.046 149.581L121.791 148.86L122.837 148.93C138.721 150.093 151.163 163.488 151.163 179.442V200ZM53.4883 195.349H146.512V179.442C146.512 166.256 136.488 155.116 123.512 153.674C117.07 159.558 108.767 162.791 99.9999 162.791C91.2325 162.791 82.9302 159.558 76.4883 153.674C63.5116 155.14 53.4883 166.256 53.4883 179.442V195.349Z" fill="#030422"/>
<path d="M160.465 141.86C148.93 141.86 139.535 132.465 139.535 120.93C139.535 109.395 148.93 100 160.465 100C172 100 181.395 109.395 181.395 120.93C181.395 132.465 172 141.86 160.465 141.86ZM160.465 104.651C151.488 104.651 144.186 111.953 144.186 120.93C144.186 129.907 151.488 137.209 160.465 137.209C169.442 137.209 176.744 129.907 176.744 120.93C176.744 111.953 169.442 104.651 160.465 104.651Z" fill="#030422"/>
<path d="M200.023 190.698H160.442V186.046H195.372V174.419C195.372 165.442 188.07 158.14 179.093 158.14H177.721C173.047 162.767 167.256 165.116 160.488 165.116V160.465C166.349 160.465 171.093 158.419 175.047 154.209L175.744 153.465H179.093C190.628 153.465 200.023 162.86 200.023 174.395V190.698Z" fill="#030422"/>
<path d="M39.5582 141.86C28.0233 141.86 18.6279 132.465 18.6279 120.93C18.6279 109.395 28.0233 100 39.5582 100C51.093 100 60.4884 109.395 60.4884 120.93C60.4884 132.465 51.093 141.86 39.5582 141.86ZM39.5582 104.651C30.5814 104.651 23.2791 111.953 23.2791 120.93C23.2791 129.907 30.5814 137.209 39.5582 137.209C48.5349 137.209 55.8372 129.907 55.8372 120.93C55.8372 111.953 48.5349 104.651 39.5582 104.651Z" fill="#030422"/>
<path d="M39.5814 190.698H0V174.419C0 162.884 9.37209 153.488 20.8837 153.488H24.2093L24.907 154.209C28.8837 158.419 33.6744 160.465 39.5349 160.465V165.116C32.7907 165.116 26.9535 162.767 22.2326 158.14H20.8837C11.9302 158.14 4.65116 165.442 4.65116 174.419V186.047H39.5814V190.698Z" fill="#030422"/>
<path d="M28.1628 93.2791L19.6279 79.0698H6.97674C3.13953 79.0698 0 75.9302 0 72.093V51.1628C0 47.3256 3.13953 44.186 6.97674 44.186H48.8372C52.6744 44.186 55.8139 47.3256 55.8139 51.1628V72.093C55.8139 75.9302 52.6744 79.0698 48.8372 79.0698H34.907L28.1628 93.2791ZM6.97674 48.8372C5.69767 48.8372 4.65116 49.8837 4.65116 51.1628V72.093C4.65116 73.3721 5.69767 74.4186 6.97674 74.4186H22.2558L27.6744 83.4651L31.9767 74.4186H48.8372C50.1163 74.4186 51.1628 73.3721 51.1628 72.093V51.1628C51.1628 49.8837 50.1163 48.8372 48.8372 48.8372H6.97674Z" fill="#030422"/>
<path d="M125.302 81.9535L117.093 62.7907H76.7441C72.9069 62.7907 69.7673 59.6512 69.7673 55.8139V6.97674C69.7673 3.13953 72.9069 0 76.7441 0H158.139C161.977 0 165.116 3.13953 165.116 6.97674V55.8139C165.116 59.6512 161.977 62.7907 158.139 62.7907H136.232L125.302 81.9535ZM76.7441 4.65116C75.465 4.65116 74.4185 5.69767 74.4185 6.97674V55.8139C74.4185 57.093 75.465 58.1395 76.7441 58.1395H120.139L125.884 71.5349L133.535 58.1395H158.139C159.418 58.1395 160.465 57.093 160.465 55.8139V6.97674C160.465 5.69767 159.418 4.65116 158.139 4.65116H76.7441Z" fill="#030422"/>
<path d="M141.861 18.6046H90.6978V23.2558H141.861V18.6046Z" fill="#030422"/>
<path d="M123.256 37.2094H90.6978V41.8605H123.256V37.2094Z" fill="#030422"/>
</g>
<defs>
<clipPath id="clip0">
<rect width="200.023" height="200" fill="white"/>
</clipPath>
</defs>
</svg>
