<svg width="110" height="40" viewBox="0 0 110 40" fill="none" xmlns="http://www.w3.org/2000/svg">
<g clip-path="url(#clip0)">
<path d="M7.96534 37.862L7.79798 39.601H12.7693L13.0482 37.7124L11.8517 37.0204V31.7971C11.8517 30.5879 11.5893 29.7008 11.0645 29.1357C10.5396 28.5748 9.80821 28.2942 8.87002 28.2942C8.16752 28.2942 7.51869 28.4728 6.92353 28.8301C6.32443 29.1917 5.6859 29.734 5.00815 30.4571H4.82831L5.1444 28.6682V24.2739L4.66096 23.7254L0.408748 24.0558L0.0615532 25.8072L1.52437 26.7919V36.983L0.253661 37.8618L0 39.601H6.52727L6.86198 37.7498L5.37419 36.9832V32.2087C5.84953 31.9428 6.28544 31.8097 6.68214 31.8097C7.13251 31.8097 7.46722 31.9406 7.68627 32.2023C7.90532 32.4682 8.01484 32.9295 8.01484 33.586V37.3009L7.96534 37.862ZM18.8007 40C19.9702 40 20.964 39.7528 21.7822 39.2582C22.6045 38.7637 23.2286 38.0406 23.6542 37.0892C24.084 36.1335 24.2988 34.9783 24.2988 33.6236C24.2988 31.7828 23.8546 30.3866 22.9661 29.4351C22.0777 28.4876 20.7739 28.0139 19.0548 28.0139C18.0796 28.0139 17.16 28.2569 16.2963 28.7431C15.4326 29.2293 14.7384 29.9316 14.2135 30.8499C13.6887 31.7641 13.4263 32.8299 13.4263 34.0475C13.4263 36.0214 13.8541 37.5069 14.7095 38.5042C15.5649 39.5012 16.9287 40 18.8007 40ZM18.5961 30.6628C19.1209 30.6628 19.5196 31.0472 19.7925 31.8159C20.0694 32.5847 20.2079 33.4842 20.2079 34.5148C20.2079 35.4788 20.1253 36.204 19.9599 36.69C19.7987 37.1762 19.5384 37.4192 19.1788 37.4192C18.844 37.4192 18.5485 37.2634 18.2923 36.9517C18.0318 36.64 17.8294 36.1996 17.6848 35.6303C17.5403 35.0653 17.468 34.4046 17.468 33.6483C17.468 32.6426 17.5506 31.8947 17.7159 31.4043C17.8811 30.91 18.1746 30.6628 18.5961 30.6628ZM30.1072 24.2367L29.6237 23.6881L25.1917 24.0186L24.8445 25.77L26.3073 26.7547V36.9832L25.0366 37.862L24.7825 39.601H31.0307L31.3096 37.7124L30.107 37.0204V24.2367H30.1072ZM34.7561 27.6958C35.6446 27.6958 36.3079 27.511 36.746 27.1411C37.1799 26.7712 37.3968 26.3101 37.3968 25.7574C37.3968 25.4166 37.2997 25.1051 37.1054 24.8225C36.9111 24.5398 36.6178 24.3156 36.2253 24.1492C35.8286 23.9789 35.3471 23.8937 34.7811 23.8937C34.1859 23.8937 33.6758 23.9767 33.2499 24.1431C32.8243 24.3052 32.506 24.5253 32.2953 24.8037C32.0804 25.0822 31.9731 25.3959 31.9731 25.7449C31.9731 26.3225 32.1899 26.7919 32.6239 27.1534C33.0617 27.5152 33.7726 27.6958 34.7561 27.6958ZM36.7212 28.9861L36.2314 28.4376L31.8055 28.768L31.4522 30.5194L32.915 31.5041V36.983L31.6443 37.8618L31.3902 39.6008H37.6384L37.9172 37.7122L36.7208 37.0202V28.9861H36.7212ZM42.1326 40C43.0128 40 43.7959 39.8317 44.482 39.4951C45.168 39.1584 45.699 38.7181 46.0751 38.1737C46.4554 37.6252 46.6453 37.0455 46.6453 36.4347C46.6453 35.8363 46.476 35.2898 46.1371 34.7954C45.7982 34.2969 45.3996 33.8708 44.9406 33.5177C44.4778 33.1645 43.8971 32.7656 43.1988 32.321C42.5997 31.9388 42.1677 31.6374 41.9033 31.4171C41.6347 31.1926 41.5005 30.9745 41.5005 30.7626C41.5005 30.667 41.5397 30.5881 41.6183 30.5258C41.6928 30.4634 41.7981 30.4324 41.9344 30.4324C42.3806 30.4324 42.8042 30.6443 43.2051 31.0682C43.6101 31.4878 43.9779 32.0031 44.3085 32.614C44.6226 32.5891 44.9448 32.4893 45.2756 32.3148C45.6103 32.1404 45.8872 31.9075 46.1062 31.6167C46.3294 31.3217 46.4409 31.0038 46.4409 30.663C46.4409 29.7862 46.131 29.1339 45.5111 28.7059C44.887 28.2737 44.1164 28.0576 43.199 28.0576C42.3022 28.0576 41.486 28.2259 40.7504 28.5625C40.0149 28.8949 39.4383 29.3498 39.021 29.9275C38.5996 30.5093 38.3888 31.1574 38.3888 31.8723C38.3888 32.4706 38.5542 33.015 38.8848 33.5053C39.2153 33.9999 39.6079 34.4216 40.0626 34.7707C40.513 35.1197 41.0812 35.5083 41.7673 35.9363C42.3788 36.3269 42.8189 36.6323 43.0875 36.8526C43.3519 37.0687 43.4883 37.291 43.4967 37.5194C43.4967 37.6483 43.4511 37.7562 43.3602 37.8435C43.2651 37.9265 43.137 37.9682 42.976 37.9682C42.3891 37.9682 41.8788 37.7375 41.4448 37.2762C41.015 36.8149 40.5811 36.1419 40.143 35.2567C39.7958 35.2651 39.4694 35.3669 39.1636 35.5621C38.8578 35.7533 38.6118 36.0046 38.4261 36.3164C38.2401 36.6239 38.1472 36.9521 38.1472 37.3011C38.1472 37.8455 38.3166 38.3213 38.6554 38.7284C38.9943 39.1397 39.4674 39.4556 40.0749 39.6759C40.6779 39.8918 41.364 40 42.1326 40ZM48.2446 31.1616L48.1826 35.4499C48.1662 36.5761 48.259 37.4568 48.4614 38.0926C48.6639 38.7242 49.0172 39.1814 49.5214 39.464C50.0257 39.7425 50.7385 39.8817 51.66 39.8817C52.5691 39.8817 53.2966 39.7134 53.842 39.3768C54.3874 39.0401 54.8461 38.6163 55.2181 38.1052L54.8522 36.4847C54.8233 36.5012 54.7408 36.5386 54.6043 36.5968C54.472 36.6508 54.3046 36.7047 54.1022 36.7589C53.8998 36.8129 53.6994 36.84 53.5009 36.84C53.0628 36.84 52.7426 36.734 52.5402 36.5221C52.3417 36.3102 52.2177 36.0401 52.1682 35.7119C52.1187 35.3836 52.0979 34.9349 52.1062 34.3656L52.1435 31.0807L54.877 31.5669L55.1436 29.1798L52.193 29.373L52.3108 26.6117L50.098 26.487C49.6765 26.8527 49.1558 27.3306 48.5359 27.9205C47.9118 28.5105 47.4201 28.9863 47.0606 29.3479L46.9119 30.9186L48.2446 31.1616ZM60.8093 39.9813C61.64 39.9813 62.3444 39.8566 62.9232 39.6072C63.5019 39.3578 63.9729 39.0421 64.3365 38.6597C64.7001 38.2733 65.0473 37.8078 65.3779 37.2634L64.1753 35.7676C63.8778 36.0419 63.4892 36.2641 63.0099 36.4344C62.5306 36.6047 62.08 36.69 61.6586 36.69C61.0139 36.69 60.5346 36.5611 60.2205 36.3036C59.9022 36.0419 59.7371 35.6513 59.7246 35.1318L64.7827 34.9635C64.8241 34.735 64.8756 34.3235 64.9376 33.7294C65.0037 33.131 65.0368 32.7341 65.0368 32.5389C65.0368 31.6705 64.8942 30.8955 64.609 30.2141C64.3196 29.5327 63.8982 28.9987 63.3444 28.6123C62.7865 28.2301 62.1151 28.0388 61.3298 28.0388C60.2595 28.0388 59.2988 28.3069 58.4473 28.8429C57.6002 29.3831 56.9389 30.1352 56.4638 31.0992C55.9885 32.0591 55.751 33.1478 55.751 34.3654C55.751 35.5746 55.9617 36.601 56.3832 37.4445C56.8088 38.288 57.404 38.9218 58.1685 39.3457C58.929 39.7693 59.8094 39.9813 60.8093 39.9813ZM60.4499 30.532C60.7392 30.532 60.9581 30.7106 61.107 31.0679C61.2558 31.4253 61.3302 31.9073 61.3302 32.514C61.3302 32.7508 61.3177 32.998 61.293 33.2557L59.6628 33.5362C59.6214 33.05 59.6008 32.6656 59.6008 32.3831C59.6008 31.7348 59.6711 31.2634 59.8116 30.9682C59.9517 30.6774 60.1647 30.532 60.4499 30.532ZM65.8736 37.862L65.6195 39.601H73.3182L73.5351 37.5566L70.8449 36.79V33.15C71.3862 32.9048 72.1342 32.7823 73.0889 32.7823C73.6551 32.7823 74.312 32.8799 75.0601 33.0753C75.4073 32.215 75.5808 31.3841 75.5808 30.5822C75.5808 29.8924 75.4279 29.3355 75.1221 28.9117C74.8163 28.492 74.3079 28.282 73.5973 28.282C73.0394 28.282 72.4898 28.5709 71.9485 29.1485C71.4072 29.7303 70.963 30.5447 70.6158 31.5918H70.3864V28.8989L69.9277 28.4252L65.9669 28.7806L65.6447 30.4573L67.0952 31.411L67.1447 36.9832L65.8736 37.862Z" fill="#030422"/>
<path d="M94.2179 3.15094H92.6798C92.236 1.42291 90.5462 0 88.5279 0C86.1715 0 84.261 1.85492 84.261 4.44675H85.5394H92.7941H95.1303L94.2179 3.15094Z" fill="#030422"/>
<path d="M88.5279 9.60175C90.8842 9.60175 92.7945 7.4708 92.7945 5.31076H84.261C84.261 7.4708 86.1715 9.60175 88.5279 9.60175Z" fill="#030422"/>
<path d="M99.7014 21.2942L95.6474 12.1967C95.2128 11.2337 94.2586 10.4946 93.2072 10.4946H85.0611C83.77 10.4946 82.6625 11.5151 82.4259 12.7915L81.3379 18.7158C84.7866 19.4963 87.3633 22.6085 87.3633 26.3126C87.3633 27.1169 87.2418 27.774 87.0164 28.6378H90.8714C91.7619 28.6378 92.4968 27.9459 92.5441 27.0512L93.0486 17.5579L97.0647 24.7059L104.273 24.4118L107.017 21.2942H99.7014Z" fill="#030422"/>
<path d="M75.705 31.4938L80.3156 28.1644V30.0894C82.0338 29.6862 83.3751 28.1723 83.3751 26.3022C83.3751 24.179 81.7556 22.3855 79.6604 22.3855C77.4905 22.3855 76.02 24.3182 76.02 26.0462V26.9102H73.4429V26.0462C73.4429 22.656 76.2842 19.7915 79.7631 19.7915C83.2303 19.7915 86.0035 22.8003 86.0035 26.3615C86.0035 29.5957 83.7518 32.3316 80.3156 32.7367V34.8223L75.705 31.4938Z" fill="#030422"/>
<path d="M109.524 11.3932C109.524 10.8969 109.124 10.4946 108.63 10.4946H100.967C100.474 10.4946 100.074 10.8969 100.074 11.3932V19.0997C100.074 19.5961 100.474 19.9983 100.967 19.9983H108.63C109.124 19.9983 109.524 19.5961 109.524 19.0997V11.3932ZM106.517 14.2701C106.517 14.3322 106.467 14.3825 106.405 14.3825H103.193C103.131 14.3825 103.081 14.3325 103.081 14.2701V13.1988C103.081 13.1367 103.131 13.0865 103.193 13.0865H106.405C106.467 13.0865 106.517 13.1365 106.517 13.1988V14.2701Z" fill="#030422"/>
</g>
<defs>
<clipPath id="clip0">
<rect width="109.524" height="40" fill="white"/>
</clipPath>
</defs>
</svg>
