<svg width="100" height="100" viewBox="0 0 100 100" fill="none" xmlns="http://www.w3.org/2000/svg">
<path d="M100 0H0V100H100V0Z" fill="#030422"/>
<path d="M9.5 6H6V9.5H9.5V6Z" fill="white"/>
<path d="M13 6H9.5V9.5H13V6Z" fill="white"/>
<path d="M16.5 6H13V9.5H16.5V6Z" fill="white"/>
<path d="M20 6H16.5V9.5H20V6Z" fill="white"/>
<path d="M23.5 6H20V9.5H23.5V6Z" fill="white"/>
<path d="M27 6H23.5V9.5H27V6Z" fill="white"/>
<path d="M30.5 6H27V9.5H30.5V6Z" fill="white"/>
<path d="M37.5 6H34V9.5H37.5V6Z" fill="white"/>
<path d="M41 6H37.5V9.5H41V6Z" fill="white"/>
<path d="M58.5 6H55V9.5H58.5V6Z" fill="white"/>
<path d="M65.5 6H62V9.5H65.5V6Z" fill="white"/>
<path d="M72.5 6H69V9.5H72.5V6Z" fill="white"/>
<path d="M76 6H72.5V9.5H76V6Z" fill="white"/>
<path d="M79.5 6H76V9.5H79.5V6Z" fill="white"/>
<path d="M83 6H79.5V9.5H83V6Z" fill="white"/>
<path d="M86.5 6H83V9.5H86.5V6Z" fill="white"/>
<path d="M90 6H86.5V9.5H90V6Z" fill="white"/>
<path d="M93.5 6H90V9.5H93.5V6Z" fill="white"/>
<path d="M9.5 9.5H6V13H9.5V9.5Z" fill="white"/>
<path d="M30.5 9.5H27V13H30.5V9.5Z" fill="white"/>
<path d="M65.5 9.5H62V13H65.5V9.5Z" fill="white"/>
<path d="M72.5 9.5H69V13H72.5V9.5Z" fill="white"/>
<path d="M93.5 9.5H90V13H93.5V9.5Z" fill="white"/>
<path d="M9.5 13H6V16.5H9.5V13Z" fill="white"/>
<path d="M16.5 13H13V16.5H16.5V13Z" fill="white"/>
<path d="M20 13H16.5V16.5H20V13Z" fill="white"/>
<path d="M23.5 13H20V16.5H23.5V13Z" fill="white"/>
<path d="M30.5 13H27V16.5H30.5V13Z" fill="white"/>
<path d="M37.5 13H34V16.5H37.5V13Z" fill="white"/>
<path d="M48 13H44.5V16.5H48V13Z" fill="white"/>
<path d="M51.5 13H48V16.5H51.5V13Z" fill="white"/>
<path d="M55 13H51.5V16.5H55V13Z" fill="white"/>
<path d="M62 13H58.5V16.5H62V13Z" fill="white"/>
<path d="M65.5 13H62V16.5H65.5V13Z" fill="white"/>
<path d="M72.5 13H69V16.5H72.5V13Z" fill="white"/>
<path d="M79.5 13H76V16.5H79.5V13Z" fill="white"/>
<path d="M83 13H79.5V16.5H83V13Z" fill="white"/>
<path d="M86.5 13H83V16.5H86.5V13Z" fill="white"/>
<path d="M93.5 13H90V16.5H93.5V13Z" fill="white"/>
<path d="M9.5 16.5H6V20H9.5V16.5Z" fill="white"/>
<path d="M16.5 16.5H13V20H16.5V16.5Z" fill="white"/>
<path d="M20 16.5H16.5V20H20V16.5Z" fill="white"/>
<path d="M23.5 16.5H20V20H23.5V16.5Z" fill="white"/>
<path d="M30.5 16.5H27V20H30.5V16.5Z" fill="white"/>
<path d="M37.5 16.5H34V20H37.5V16.5Z" fill="white"/>
<path d="M41 16.5H37.5V20H41V16.5Z" fill="white"/>
<path d="M48 16.5H44.5V20H48V16.5Z" fill="white"/>
<path d="M55 16.5H51.5V20H55V16.5Z" fill="white"/>
<path d="M58.5 16.5H55V20H58.5V16.5Z" fill="white"/>
<path d="M62 16.5H58.5V20H62V16.5Z" fill="white"/>
<path d="M65.5 16.5H62V20H65.5V16.5Z" fill="white"/>
<path d="M72.5 16.5H69V20H72.5V16.5Z" fill="white"/>
<path d="M79.5 16.5H76V20H79.5V16.5Z" fill="white"/>
<path d="M83 16.5H79.5V20H83V16.5Z" fill="white"/>
<path d="M86.5 16.5H83V20H86.5V16.5Z" fill="white"/>
<path d="M93.5 16.5H90V20H93.5V16.5Z" fill="white"/>
<path d="M9.5 20H6V23.5H9.5V20Z" fill="white"/>
<path d="M16.5 20H13V23.5H16.5V20Z" fill="white"/>
<path d="M20 20H16.5V23.5H20V20Z" fill="white"/>
<path d="M23.5 20H20V23.5H23.5V20Z" fill="white"/>
<path d="M30.5 20H27V23.5H30.5V20Z" fill="white"/>
<path d="M37.5 20H34V23.5H37.5V20Z" fill="white"/>
<path d="M41 20H37.5V23.5H41V20Z" fill="white"/>
<path d="M44.5 20H41V23.5H44.5V20Z" fill="white"/>
<path d="M48 20H44.5V23.5H48V20Z" fill="white"/>
<path d="M58.5 20H55V23.5H58.5V20Z" fill="white"/>
<path d="M62 20H58.5V23.5H62V20Z" fill="white"/>
<path d="M65.5 20H62V23.5H65.5V20Z" fill="white"/>
<path d="M72.5 20H69V23.5H72.5V20Z" fill="white"/>
<path d="M79.5 20H76V23.5H79.5V20Z" fill="white"/>
<path d="M83 20H79.5V23.5H83V20Z" fill="white"/>
<path d="M86.5 20H83V23.5H86.5V20Z" fill="white"/>
<path d="M93.5 20H90V23.5H93.5V20Z" fill="white"/>
<path d="M9.5 23.5H6V27H9.5V23.5Z" fill="white"/>
<path d="M30.5 23.5H27V27H30.5V23.5Z" fill="white"/>
<path d="M41 23.5H37.5V27H41V23.5Z" fill="white"/>
<path d="M51.5 23.5H48V27H51.5V23.5Z" fill="white"/>
<path d="M55 23.5H51.5V27H55V23.5Z" fill="white"/>
<path d="M58.5 23.5H55V27H58.5V23.5Z" fill="white"/>
<path d="M72.5 23.5H69V27H72.5V23.5Z" fill="white"/>
<path d="M93.5 23.5H90V27H93.5V23.5Z" fill="white"/>
<path d="M9.5 27H6V30.5H9.5V27Z" fill="white"/>
<path d="M13 27H9.5V30.5H13V27Z" fill="white"/>
<path d="M16.5 27H13V30.5H16.5V27Z" fill="white"/>
<path d="M20 27H16.5V30.5H20V27Z" fill="white"/>
<path d="M23.5 27H20V30.5H23.5V27Z" fill="white"/>
<path d="M27 27H23.5V30.5H27V27Z" fill="white"/>
<path d="M30.5 27H27V30.5H30.5V27Z" fill="white"/>
<path d="M37.5 27H34V30.5H37.5V27Z" fill="white"/>
<path d="M44.5 27H41V30.5H44.5V27Z" fill="white"/>
<path d="M51.5 27H48V30.5H51.5V27Z" fill="white"/>
<path d="M58.5 27H55V30.5H58.5V27Z" fill="white"/>
<path d="M65.5 27H62V30.5H65.5V27Z" fill="white"/>
<path d="M72.5 27H69V30.5H72.5V27Z" fill="white"/>
<path d="M76 27H72.5V30.5H76V27Z" fill="white"/>
<path d="M79.5 27H76V30.5H79.5V27Z" fill="white"/>
<path d="M83 27H79.5V30.5H83V27Z" fill="white"/>
<path d="M86.5 27H83V30.5H86.5V27Z" fill="white"/>
<path d="M90 27H86.5V30.5H90V27Z" fill="white"/>
<path d="M93.5 27H90V30.5H93.5V27Z" fill="white"/>
<path d="M41 30.5H37.5V34H41V30.5Z" fill="white"/>
<path d="M48 30.5H44.5V34H48V30.5Z" fill="white"/>
<path d="M9.5 34H6V37.5H9.5V34Z" fill="white"/>
<path d="M13 34H9.5V37.5H13V34Z" fill="white"/>
<path d="M16.5 34H13V37.5H16.5V34Z" fill="white"/>
<path d="M20 34H16.5V37.5H20V34Z" fill="white"/>
<path d="M30.5 34H27V37.5H30.5V34Z" fill="white"/>
<path d="M37.5 34H34V37.5H37.5V34Z" fill="white"/>
<path d="M58.5 34H55V37.5H58.5V34Z" fill="white"/>
<path d="M62 34H58.5V37.5H62V34Z" fill="white"/>
<path d="M65.5 34H62V37.5H65.5V34Z" fill="white"/>
<path d="M69 34H65.5V37.5H69V34Z" fill="white"/>
<path d="M79.5 34H76V37.5H79.5V34Z" fill="white"/>
<path d="M83 34H79.5V37.5H83V34Z" fill="white"/>
<path d="M86.5 34H83V37.5H86.5V34Z" fill="white"/>
<path d="M93.5 34H90V37.5H93.5V34Z" fill="white"/>
<path d="M9.5 37.5H6V41H9.5V37.5Z" fill="white"/>
<path d="M13 37.5H9.5V41H13V37.5Z" fill="white"/>
<path d="M23.5 37.5H20V41H23.5V37.5Z" fill="white"/>
<path d="M27 37.5H23.5V41H27V37.5Z" fill="white"/>
<path d="M34 37.5H30.5V41H34V37.5Z" fill="white"/>
<path d="M37.5 37.5H34V41H37.5V37.5Z" fill="white"/>
<path d="M41 37.5H37.5V41H41V37.5Z" fill="white"/>
<path d="M58.5 37.5H55V41H58.5V37.5Z" fill="white"/>
<path d="M65.5 37.5H62V41H65.5V37.5Z" fill="white"/>
<path d="M69 37.5H65.5V41H69V37.5Z" fill="white"/>
<path d="M76 37.5H72.5V41H76V37.5Z" fill="white"/>
<path d="M90 37.5H86.5V41H90V37.5Z" fill="white"/>
<path d="M16.5 41H13V44.5H16.5V41Z" fill="white"/>
<path d="M23.5 41H20V44.5H23.5V41Z" fill="white"/>
<path d="M27 41H23.5V44.5H27V41Z" fill="white"/>
<path d="M30.5 41H27V44.5H30.5V41Z" fill="white"/>
<path d="M37.5 41H34V44.5H37.5V41Z" fill="white"/>
<path d="M55 41H51.5V44.5H55V41Z" fill="white"/>
<path d="M58.5 41H55V44.5H58.5V41Z" fill="white"/>
<path d="M76 41H72.5V44.5H76V41Z" fill="white"/>
<path d="M9.5 44.5H6V48H9.5V44.5Z" fill="white"/>
<path d="M13 44.5H9.5V48H13V44.5Z" fill="white"/>
<path d="M16.5 44.5H13V48H16.5V44.5Z" fill="white"/>
<path d="M27 44.5H23.5V48H27V44.5Z" fill="white"/>
<path d="M34 44.5H30.5V48H34V44.5Z" fill="white"/>
<path d="M37.5 44.5H34V48H37.5V44.5Z" fill="white"/>
<path d="M48 44.5H44.5V48H48V44.5Z" fill="white"/>
<path d="M51.5 44.5H48V48H51.5V44.5Z" fill="white"/>
<path d="M55 44.5H51.5V48H55V44.5Z" fill="white"/>
<path d="M69 44.5H65.5V48H69V44.5Z" fill="white"/>
<path d="M72.5 44.5H69V48H72.5V44.5Z" fill="white"/>
<path d="M83 44.5H79.5V48H83V44.5Z" fill="white"/>
<path d="M86.5 44.5H83V48H86.5V44.5Z" fill="white"/>
<path d="M9.5 48H6V51.5H9.5V48Z" fill="white"/>
<path d="M16.5 48H13V51.5H16.5V48Z" fill="white"/>
<path d="M20 48H16.5V51.5H20V48Z" fill="white"/>
<path d="M30.5 48H27V51.5H30.5V48Z" fill="white"/>
<path d="M37.5 48H34V51.5H37.5V48Z" fill="white"/>
<path d="M41 48H37.5V51.5H41V48Z" fill="white"/>
<path d="M48 48H44.5V51.5H48V48Z" fill="white"/>
<path d="M51.5 48H48V51.5H51.5V48Z" fill="white"/>
<path d="M55 48H51.5V51.5H55V48Z" fill="white"/>
<path d="M58.5 48H55V51.5H58.5V48Z" fill="white"/>
<path d="M69 48H65.5V51.5H69V48Z" fill="white"/>
<path d="M72.5 48H69V51.5H72.5V48Z" fill="white"/>
<path d="M76 48H72.5V51.5H76V48Z" fill="white"/>
<path d="M79.5 48H76V51.5H79.5V48Z" fill="white"/>
<path d="M86.5 48H83V51.5H86.5V48Z" fill="white"/>
<path d="M90 48H86.5V51.5H90V48Z" fill="white"/>
<path d="M93.5 48H90V51.5H93.5V48Z" fill="white"/>
<path d="M16.5 51.5H13V55H16.5V51.5Z" fill="white"/>
<path d="M20 51.5H16.5V55H20V51.5Z" fill="white"/>
<path d="M23.5 51.5H20V55H23.5V51.5Z" fill="white"/>
<path d="M34 51.5H30.5V55H34V51.5Z" fill="white"/>
<path d="M44.5 51.5H41V55H44.5V51.5Z" fill="white"/>
<path d="M48 51.5H44.5V55H48V51.5Z" fill="white"/>
<path d="M58.5 51.5H55V55H58.5V51.5Z" fill="white"/>
<path d="M62 51.5H58.5V55H62V51.5Z" fill="white"/>
<path d="M65.5 51.5H62V55H65.5V51.5Z" fill="white"/>
<path d="M72.5 51.5H69V55H72.5V51.5Z" fill="white"/>
<path d="M76 51.5H72.5V55H76V51.5Z" fill="white"/>
<path d="M79.5 51.5H76V55H79.5V51.5Z" fill="white"/>
<path d="M93.5 51.5H90V55H93.5V51.5Z" fill="white"/>
<path d="M13 55H9.5V58.5H13V55Z" fill="white"/>
<path d="M16.5 55H13V58.5H16.5V55Z" fill="white"/>
<path d="M27 55H23.5V58.5H27V55Z" fill="white"/>
<path d="M30.5 55H27V58.5H30.5V55Z" fill="white"/>
<path d="M34 55H30.5V58.5H34V55Z" fill="white"/>
<path d="M37.5 55H34V58.5H37.5V55Z" fill="white"/>
<path d="M44.5 55H41V58.5H44.5V55Z" fill="white"/>
<path d="M51.5 55H48V58.5H51.5V55Z" fill="white"/>
<path d="M69 55H65.5V58.5H69V55Z" fill="white"/>
<path d="M79.5 55H76V58.5H79.5V55Z" fill="white"/>
<path d="M86.5 55H83V58.5H86.5V55Z" fill="white"/>
<path d="M90 55H86.5V58.5H90V55Z" fill="white"/>
<path d="M9.5 58.5H6V62H9.5V58.5Z" fill="white"/>
<path d="M34 58.5H30.5V62H34V58.5Z" fill="white"/>
<path d="M41 58.5H37.5V62H41V58.5Z" fill="white"/>
<path d="M44.5 58.5H41V62H44.5V58.5Z" fill="white"/>
<path d="M65.5 58.5H62V62H65.5V58.5Z" fill="white"/>
<path d="M69 58.5H65.5V62H69V58.5Z" fill="white"/>
<path d="M76 58.5H72.5V62H76V58.5Z" fill="white"/>
<path d="M79.5 58.5H76V62H79.5V58.5Z" fill="white"/>
<path d="M93.5 58.5H90V62H93.5V58.5Z" fill="white"/>
<path d="M16.5 62H13V65.5H16.5V62Z" fill="white"/>
<path d="M20 62H16.5V65.5H20V62Z" fill="white"/>
<path d="M23.5 62H20V65.5H23.5V62Z" fill="white"/>
<path d="M27 62H23.5V65.5H27V62Z" fill="white"/>
<path d="M30.5 62H27V65.5H30.5V62Z" fill="white"/>
<path d="M37.5 62H34V65.5H37.5V62Z" fill="white"/>
<path d="M55 62H51.5V65.5H55V62Z" fill="white"/>
<path d="M62 62H58.5V65.5H62V62Z" fill="white"/>
<path d="M65.5 62H62V65.5H65.5V62Z" fill="white"/>
<path d="M69 62H65.5V65.5H69V62Z" fill="white"/>
<path d="M72.5 62H69V65.5H72.5V62Z" fill="white"/>
<path d="M76 62H72.5V65.5H76V62Z" fill="white"/>
<path d="M79.5 62H76V65.5H79.5V62Z" fill="white"/>
<path d="M83 62H79.5V65.5H83V62Z" fill="white"/>
<path d="M86.5 62H83V65.5H86.5V62Z" fill="white"/>
<path d="M90 62H86.5V65.5H90V62Z" fill="white"/>
<path d="M93.5 62H90V65.5H93.5V62Z" fill="white"/>
<path d="M37.5 65.5H34V69H37.5V65.5Z" fill="white"/>
<path d="M41 65.5H37.5V69H41V65.5Z" fill="white"/>
<path d="M48 65.5H44.5V69H48V65.5Z" fill="white"/>
<path d="M51.5 65.5H48V69H51.5V65.5Z" fill="white"/>
<path d="M55 65.5H51.5V69H55V65.5Z" fill="white"/>
<path d="M65.5 65.5H62V69H65.5V65.5Z" fill="white"/>
<path d="M79.5 65.5H76V69H79.5V65.5Z" fill="white"/>
<path d="M86.5 65.5H83V69H86.5V65.5Z" fill="white"/>
<path d="M93.5 65.5H90V69H93.5V65.5Z" fill="white"/>
<path d="M9.5 69H6V72.5H9.5V69Z" fill="white"/>
<path d="M13 69H9.5V72.5H13V69Z" fill="white"/>
<path d="M16.5 69H13V72.5H16.5V69Z" fill="white"/>
<path d="M20 69H16.5V72.5H20V69Z" fill="white"/>
<path d="M23.5 69H20V72.5H23.5V69Z" fill="white"/>
<path d="M27 69H23.5V72.5H27V69Z" fill="white"/>
<path d="M30.5 69H27V72.5H30.5V69Z" fill="white"/>
<path d="M41 69H37.5V72.5H41V69Z" fill="white"/>
<path d="M58.5 69H55V72.5H58.5V69Z" fill="white"/>
<path d="M65.5 69H62V72.5H65.5V69Z" fill="white"/>
<path d="M72.5 69H69V72.5H72.5V69Z" fill="white"/>
<path d="M79.5 69H76V72.5H79.5V69Z" fill="white"/>
<path d="M86.5 69H83V72.5H86.5V69Z" fill="white"/>
<path d="M90 69H86.5V72.5H90V69Z" fill="white"/>
<path d="M93.5 69H90V72.5H93.5V69Z" fill="white"/>
<path d="M9.5 72.5H6V76H9.5V72.5Z" fill="white"/>
<path d="M30.5 72.5H27V76H30.5V72.5Z" fill="white"/>
<path d="M51.5 72.5H48V76H51.5V72.5Z" fill="white"/>
<path d="M58.5 72.5H55V76H58.5V72.5Z" fill="white"/>
<path d="M62 72.5H58.5V76H62V72.5Z" fill="white"/>
<path d="M65.5 72.5H62V76H65.5V72.5Z" fill="white"/>
<path d="M79.5 72.5H76V76H79.5V72.5Z" fill="white"/>
<path d="M90 72.5H86.5V76H90V72.5Z" fill="white"/>
<path d="M93.5 72.5H90V76H93.5V72.5Z" fill="white"/>
<path d="M9.5 76H6V79.5H9.5V76Z" fill="white"/>
<path d="M16.5 76H13V79.5H16.5V76Z" fill="white"/>
<path d="M20 76H16.5V79.5H20V76Z" fill="white"/>
<path d="M23.5 76H20V79.5H23.5V76Z" fill="white"/>
<path d="M30.5 76H27V79.5H30.5V76Z" fill="white"/>
<path d="M41 76H37.5V79.5H41V76Z" fill="white"/>
<path d="M44.5 76H41V79.5H44.5V76Z" fill="white"/>
<path d="M48 76H44.5V79.5H48V76Z" fill="white"/>
<path d="M65.5 76H62V79.5H65.5V76Z" fill="white"/>
<path d="M69 76H65.5V79.5H69V76Z" fill="white"/>
<path d="M72.5 76H69V79.5H72.5V76Z" fill="white"/>
<path d="M76 76H72.5V79.5H76V76Z" fill="white"/>
<path d="M79.5 76H76V79.5H79.5V76Z" fill="white"/>
<path d="M83 76H79.5V79.5H83V76Z" fill="white"/>
<path d="M93.5 76H90V79.5H93.5V76Z" fill="white"/>
<path d="M9.5 79.5H6V83H9.5V79.5Z" fill="white"/>
<path d="M16.5 79.5H13V83H16.5V79.5Z" fill="white"/>
<path d="M20 79.5H16.5V83H20V79.5Z" fill="white"/>
<path d="M23.5 79.5H20V83H23.5V79.5Z" fill="white"/>
<path d="M30.5 79.5H27V83H30.5V79.5Z" fill="white"/>
<path d="M37.5 79.5H34V83H37.5V79.5Z" fill="white"/>
<path d="M41 79.5H37.5V83H41V79.5Z" fill="white"/>
<path d="M44.5 79.5H41V83H44.5V79.5Z" fill="white"/>
<path d="M48 79.5H44.5V83H48V79.5Z" fill="white"/>
<path d="M55 79.5H51.5V83H55V79.5Z" fill="white"/>
<path d="M62 79.5H58.5V83H62V79.5Z" fill="white"/>
<path d="M72.5 79.5H69V83H72.5V79.5Z" fill="white"/>
<path d="M79.5 79.5H76V83H79.5V79.5Z" fill="white"/>
<path d="M83 79.5H79.5V83H83V79.5Z" fill="white"/>
<path d="M86.5 79.5H83V83H86.5V79.5Z" fill="white"/>
<path d="M90 79.5H86.5V83H90V79.5Z" fill="white"/>
<path d="M93.5 79.5H90V83H93.5V79.5Z" fill="white"/>
<path d="M9.5 83H6V86.5H9.5V83Z" fill="white"/>
<path d="M16.5 83H13V86.5H16.5V83Z" fill="white"/>
<path d="M20 83H16.5V86.5H20V83Z" fill="white"/>
<path d="M23.5 83H20V86.5H23.5V83Z" fill="white"/>
<path d="M30.5 83H27V86.5H30.5V83Z" fill="white"/>
<path d="M37.5 83H34V86.5H37.5V83Z" fill="white"/>
<path d="M41 83H37.5V86.5H41V83Z" fill="white"/>
<path d="M44.5 83H41V86.5H44.5V83Z" fill="white"/>
<path d="M48 83H44.5V86.5H48V83Z" fill="white"/>
<path d="M51.5 83H48V86.5H51.5V83Z" fill="white"/>
<path d="M55 83H51.5V86.5H55V83Z" fill="white"/>
<path d="M65.5 83H62V86.5H65.5V83Z" fill="white"/>
<path d="M69 83H65.5V86.5H69V83Z" fill="white"/>
<path d="M72.5 83H69V86.5H72.5V83Z" fill="white"/>
<path d="M79.5 83H76V86.5H79.5V83Z" fill="white"/>
<path d="M86.5 83H83V86.5H86.5V83Z" fill="white"/>
<path d="M90 83H86.5V86.5H90V83Z" fill="white"/>
<path d="M9.5 86.5H6V90H9.5V86.5Z" fill="white"/>
<path d="M30.5 86.5H27V90H30.5V86.5Z" fill="white"/>
<path d="M37.5 86.5H34V90H37.5V86.5Z" fill="white"/>
<path d="M48 86.5H44.5V90H48V86.5Z" fill="white"/>
<path d="M55 86.5H51.5V90H55V86.5Z" fill="white"/>
<path d="M69 86.5H65.5V90H69V86.5Z" fill="white"/>
<path d="M72.5 86.5H69V90H72.5V86.5Z" fill="white"/>
<path d="M79.5 86.5H76V90H79.5V86.5Z" fill="white"/>
<path d="M86.5 86.5H83V90H86.5V86.5Z" fill="white"/>
<path d="M9.5 90H6V93.5H9.5V90Z" fill="white"/>
<path d="M13 90H9.5V93.5H13V90Z" fill="white"/>
<path d="M16.5 90H13V93.5H16.5V90Z" fill="white"/>
<path d="M20 90H16.5V93.5H20V90Z" fill="white"/>
<path d="M23.5 90H20V93.5H23.5V90Z" fill="white"/>
<path d="M27 90H23.5V93.5H27V90Z" fill="white"/>
<path d="M30.5 90H27V93.5H30.5V90Z" fill="white"/>
<path d="M37.5 90H34V93.5H37.5V90Z" fill="white"/>
<path d="M41 90H37.5V93.5H41V90Z" fill="white"/>
<path d="M51.5 90H48V93.5H51.5V90Z" fill="white"/>
<path d="M55 90H51.5V93.5H55V90Z" fill="white"/>
<path d="M58.5 90H55V93.5H58.5V90Z" fill="white"/>
<path d="M76 90H72.5V93.5H76V90Z" fill="white"/>
<path d="M79.5 90H76V93.5H79.5V90Z" fill="white"/>
<path d="M83 90H79.5V93.5H83V90Z" fill="white"/>
<path d="M86.5 90H83V93.5H86.5V90Z" fill="white"/>
<path d="M90 90H86.5V93.5H90V90Z" fill="white"/>
<path d="M93.5 90H90V93.5H93.5V90Z" fill="white"/>
</svg>
