<svg width="79" height="77" viewBox="0 0 79 77" fill="none" xmlns="http://www.w3.org/2000/svg">
<g clip-path="url(#clip0)">
<path d="M68.3686 38.5898C68.85 38.4551 69.3859 37.988 69.177 36.5148C68.6592 32.8409 63.0822 21.5316 58.2137 21.5316H58.2046H58.0229L57.8594 21.6214C56.9329 22.1604 55.1708 23.0227 54.3988 23.0227C54.0718 23.0227 52.5276 22.6185 51.1561 22.2592C46.6054 21.0645 42.7179 20.1123 41.2282 20.6693L39.3117 21.3789C37.9311 21.0196 36.6504 20.6872 36.1326 20.5345C35.6512 20.3908 34.8247 20.3908 32.2178 21.2442L30.71 19.5464L27.3674 22.9958C26.5227 23.3012 26.2684 23.3731 26.223 23.3731C25.7234 23.3731 23.8614 23.0587 22.7169 22.8521C16.8038 22.5107 9.83704 31.5653 8.93781 36.1465C8.51091 38.2934 9.49188 38.9671 10.1186 39.1827C13.5429 40.3325 14.8691 41.3206 16.2225 42.3176C17.1035 42.9734 18.1662 43.4674 18.8475 43.7459C18.5659 44.9945 19.5105 46.2521 19.8557 46.7192C20.8185 48.0037 23.6343 47.6085 25.5054 46.3958C25.6961 46.27 25.9505 46.1173 26.2411 45.9287L26.232 45.9377C25.6326 46.7192 25.4963 47.7522 25.8506 48.8481C26.332 50.3572 27.5945 51.6687 28.9933 52.1088C29.175 52.1717 29.3839 52.1986 29.5928 52.1986C29.9834 52.1986 30.4194 52.0998 30.8644 51.9471C31.0461 52.3873 31.473 52.8185 32.0816 53.4023C32.2723 53.582 32.4812 53.7886 32.7174 54.0221C33.2351 54.5342 33.9164 54.8036 34.7066 54.8036C34.8247 54.8036 34.9427 54.7947 35.0699 54.7857C35.079 54.7857 35.0972 54.7857 35.1062 54.7767C35.4786 55.9983 36.5777 56.7529 38.4761 57.0673C38.6396 57.0942 38.8121 57.1032 38.9756 57.1032C40.0202 57.1032 41.1193 56.6181 41.9912 56.1061C42.3818 56.3756 43.0267 56.6631 44.0258 56.717C44.3438 56.8427 44.7343 56.9236 45.2157 56.9236C46.6145 56.9236 47.3775 55.6301 47.7681 54.5701C47.8952 54.6779 48.0315 54.7767 48.1768 54.8575C48.631 55.1091 49.1215 55.2438 49.621 55.2438C49.9026 55.2438 50.1751 55.2079 50.4567 55.127C51.7011 54.7767 52.2915 53.6539 52.5549 52.9083C52.7093 52.9263 52.8637 52.9352 53.0272 52.9352C54.1808 52.9352 55.5432 52.4951 56.4425 51.48C57.7868 49.9709 57.051 47.833 56.5696 46.836C56.6423 46.7821 56.7059 46.7371 56.7785 46.6833C57.1055 47.2851 57.6414 47.869 58.2954 48.2732C58.8404 48.6145 59.3945 48.7852 59.9122 48.7852C60.2029 48.7852 60.4844 48.7313 60.7478 48.6235C63.5273 47.4558 62.5463 43.0363 62.1739 41.6799C63.0913 40.8265 66.8789 39.003 68.3686 38.5898ZM35.733 21.819C36.3052 21.9897 37.6404 22.34 39.1755 22.7353C41.2827 23.2832 44.4618 24.1096 44.8615 24.2983C45.4882 24.6037 49.3576 27.541 50.0934 28.3136C50.3477 28.5741 50.711 28.8166 51.1379 29.0951C51.6738 29.4454 52.573 30.0382 52.6003 30.4155C52.6094 30.5233 52.4913 30.676 52.2915 30.8467C50.7019 32.1851 47.5319 32.4636 45.8788 31.4126C43.3991 29.8316 40.8558 28.592 39.3844 28.1878V28.1788C39.3753 28.1788 39.3571 28.1788 39.348 28.1788C39.1391 28.1249 38.9484 28.08 38.794 28.062L38.8031 28.0351L38.794 28.062L34.3705 22.0077C35.3333 21.7652 35.6421 21.7921 35.733 21.819ZM32.8627 30.164C30.5647 30.164 28.6936 32.0144 28.6936 34.2871C28.6936 34.6194 28.7481 34.9428 28.8298 35.2572C27.7489 36.1824 26.6135 37.1166 25.8233 37.6197L21.9993 32.3827L33.9799 23.7863L37.4043 28.4753C36.2961 28.8795 35.2152 29.634 34.2615 30.4155C33.8164 30.2449 33.3441 30.164 32.8627 30.164ZM32.9808 31.5294C32.7265 31.7629 32.4994 31.9875 32.2905 32.1851C32.0361 32.4277 31.8272 32.6343 31.6728 32.76C31.4639 32.9397 31.1642 33.2002 30.8099 33.5235C30.5919 33.7212 30.3376 33.9457 30.0742 34.1793C30.1378 32.7061 31.364 31.5204 32.8627 31.5204C32.9081 31.5114 32.9445 31.5204 32.9808 31.5294ZM33.989 22.1065L33.3714 22.5466L33.1897 22.34C33.4894 22.2502 33.7529 22.1784 33.989 22.1065ZM30.6555 21.5406L32.2632 23.3461L21.1818 31.2958L30.6555 21.5406ZM19.7467 42.659C19.2562 42.4704 17.9755 41.9494 16.9582 41.1948C15.6502 40.2247 14.1788 39.1288 10.5455 37.9071C10.0732 37.7454 10.164 36.9011 10.2639 36.407C11.0451 32.4187 17.5486 23.903 22.5443 24.1905C22.7895 24.2354 24.6516 24.5767 25.7143 24.6845L18.3025 32.3288L24.6516 38.4641C23.3527 39.4881 22.0538 40.7726 21.2727 41.5541L21.0274 41.7966C20.4915 42.3176 19.992 42.5602 19.7467 42.659ZM20.3825 32.4636L20.219 32.3019L20.2463 32.2749L20.3825 32.4636ZM45.2066 55.5941C44.8433 55.5941 44.3528 55.5223 44.0985 55.1809C43.8987 54.9114 43.8624 54.4892 44.0168 54.0221C44.1984 53.4472 44.5527 52.6927 45.2066 52.3603C45.5518 52.1807 45.9696 52.1448 46.442 52.2346C46.4874 52.4502 46.5328 52.6568 46.5873 52.8544C46.6236 52.9801 46.6781 53.1059 46.7326 53.2317C46.5509 54.076 45.9969 55.5941 45.2066 55.5941ZM50.0752 53.8515C49.6392 53.9772 49.2214 53.9233 48.8308 53.7077C48.3857 53.4562 48.0315 53.0071 47.8952 52.5041C47.5955 51.4172 47.6046 50.5099 47.9134 50.0248C48.086 49.7643 48.3494 49.6026 48.7491 49.5398C49.7936 49.3691 50.2478 49.5757 50.3568 49.6745C50.3749 50.2314 50.4749 50.7704 50.5475 51.1926L50.602 51.5249C50.6656 51.9112 50.9018 52.2346 51.2469 52.4771C51.1016 52.9442 50.7473 53.6628 50.0752 53.8515ZM55.4161 50.6087C54.6349 51.489 53.227 51.7675 52.3732 51.5249C52.0826 51.4441 51.9736 51.3273 51.9645 51.2824L51.9009 50.9321C51.6284 49.423 51.6012 48.5067 52.2824 48.3181C53.3179 48.0307 53.9355 48.0486 54.4714 48.0666C54.6985 48.0756 54.9074 48.0756 55.1163 48.0666L55.0982 47.7881C55.1981 47.7342 55.3071 47.6803 55.4161 47.6085C55.7612 48.399 56.179 49.7553 55.4161 50.6087ZM60.2119 47.4109C59.9122 47.5456 59.4671 47.4468 59.013 47.1683C58.4407 46.809 58.0411 46.279 57.8867 45.8658C59.0675 44.9137 60.2574 43.8447 61.0748 43.0093C61.3746 44.6082 61.4836 46.8719 60.2119 47.4109ZM60.8387 41.2128C60.2937 42.129 55.6431 46.1982 54.2171 46.7192C53.6721 46.7102 52.9636 46.7371 51.9191 47.0336C51.1561 47.2492 50.7473 47.7163 50.5384 48.2822C50.0752 48.1295 49.4303 48.0576 48.5311 48.2103C47.759 48.3361 47.1504 48.7134 46.778 49.2972C46.4783 49.7643 46.3602 50.3123 46.333 50.8692C45.6971 50.8063 45.1067 50.8962 44.5799 51.1656C43.7443 51.5968 43.0994 52.4412 42.727 53.6179C42.6815 53.7527 42.6634 53.8964 42.6361 54.0311C41.8368 54.6869 39.9657 55.9714 38.6941 55.7558C37.05 55.4863 36.5777 54.9204 36.4142 54.4623C37.595 53.9952 38.6214 53.1688 39.0211 52.5759C39.3299 52.1178 41.4008 51.3453 43.1539 50.9051L42.8178 49.6026C41.855 49.8452 38.6396 50.7255 37.8857 51.8304C37.5405 52.3334 36.169 53.3395 34.9427 53.4652C34.4068 53.5191 33.9981 53.3933 33.6893 53.0879C33.444 52.8454 33.226 52.6388 33.0444 52.4502C32.5993 52.019 32.1815 51.6148 32.1451 51.498C32.1451 51.498 32.1451 51.4621 32.1906 51.3722H32.1815C34.2161 50.2674 36.3052 48.4169 36.8865 47.8869L35.9601 46.8988C33.6075 49.0457 30.4284 51.1746 29.4111 50.8423C28.4392 50.5279 27.4855 49.5308 27.1494 48.4529C27.0223 48.0666 26.886 47.321 27.322 46.7551C28.4937 45.228 33.3078 41.6619 33.3623 41.626L32.6084 40.5121C32.3541 40.6648 26.4682 44.1681 24.7787 45.264C23.1347 46.3239 21.2818 46.315 20.9729 45.9107C20.3099 45.0304 20.0646 44.3657 20.2372 43.9166C20.6187 43.7728 21.309 43.4405 22.0266 42.7308L22.2718 42.4883C23.2528 41.5182 25.0694 39.7127 26.5681 38.7515C27.976 37.8622 30.3376 35.7602 31.7546 34.5027C32.1088 34.1883 32.3995 33.9278 32.6084 33.7571C32.7719 33.6134 32.999 33.3978 33.2805 33.1373C34.5794 31.8887 37.2771 29.3286 39.1846 29.5083C40.1292 29.8137 42.1638 30.6131 45.1885 32.5444C46.0968 33.1193 47.2958 33.3978 48.5401 33.3978C50.2478 33.3978 52.0371 32.8678 53.227 31.8617C53.7811 31.3946 54.0445 30.8826 54.0082 30.3257C53.9446 29.2837 52.8365 28.5561 51.9463 27.9722C51.6193 27.7566 51.2832 27.5321 51.1379 27.3883C50.3386 26.5529 46.3511 23.4988 45.5246 23.0946C45.1612 22.9149 43.7715 22.5287 41.637 21.9718L41.7551 21.9268C42.954 21.4867 48.0951 22.8341 50.8563 23.5617C52.891 24.0917 53.9718 24.3701 54.4442 24.3701C55.6795 24.3701 57.7686 23.2473 58.4226 22.888C59.9031 23.0138 61.9014 24.8372 63.936 27.9543C66.6609 32.1043 68.0961 36.425 67.8963 37.3322C66.4702 37.7724 61.6471 39.8474 60.8387 41.2128Z" fill="#030422"/>
<path d="M23.2165 74.8711C23.2165 73.6944 22.2537 72.7422 21.0638 72.7422C19.8739 72.7422 18.9111 73.6944 18.9111 74.8711C18.9111 76.0478 19.8739 77 21.0638 77C22.2537 77 23.2165 76.0388 23.2165 74.8711ZM19.6014 74.8711C19.6014 74.0716 20.2645 73.4159 21.0729 73.4159C21.8813 73.4159 22.5444 74.0716 22.5444 74.8711C22.5444 75.6706 21.8813 76.3263 21.0729 76.3263C20.2645 76.3263 19.6014 75.6706 19.6014 74.8711Z" fill="#030422"/>
<path d="M1.20805 26.0499L3.16092 25.0349L5.10471 26.0499L4.7323 23.9031L6.30368 22.385L4.12373 22.0706L3.15184 20.1213L2.17995 22.0616L0 22.376L1.58046 23.8941L1.20805 26.0499ZM1.46238 22.8521L2.6341 22.6814L3.16092 21.6304L3.68774 22.6814L4.85946 22.8521L4.01473 23.6695L4.21456 24.8193L3.17 24.2803L2.12545 24.8193L2.32528 23.6695L1.46238 22.8521Z" fill="#030422"/>
<path d="M19.7284 5.49742L21.1181 4.76982L22.5078 5.49742L22.2535 3.96137L23.3798 2.87446L21.8266 2.64989L21.1181 1.25757L20.4278 2.64989L18.8655 2.87446L19.9918 3.96137L19.7284 5.49742ZM20.8819 3.26072L21.1272 2.76667L21.3724 3.26072L21.9174 3.34156L21.5177 3.72782L21.6086 4.26678L21.1181 4.01527L20.6276 4.26678L20.7184 3.72782L20.3188 3.34156L20.8819 3.26072Z" fill="#030422"/>
<path d="M72.2742 56.4475L73.4005 57.5344L73.1371 59.0705L74.5268 58.3429L75.9165 59.0705L75.6531 57.5344L76.7794 56.4475L75.2262 56.2229L74.5268 54.8306L73.8274 56.2229L72.2742 56.4475ZM74.5268 56.3487L74.772 56.8428L75.317 56.9236L74.9174 57.3099L75.0082 57.8488L74.5177 57.5973L74.0272 57.8488L74.118 57.3099L73.7184 56.9236L74.2634 56.8428L74.5268 56.3487Z" fill="#030422"/>
<path d="M74.5268 7.71619L73.6276 10.4649H70.7119L73.0735 12.1626L72.1743 14.9114L74.5359 13.2136L76.8975 14.9114L75.9983 12.1626L78.3599 10.4649H75.4442L74.5268 7.71619ZM75.1899 11.9021L75.5986 13.1418L74.5359 12.3782L73.4641 13.1418L73.8728 11.9021L72.8101 11.1386H74.1272L74.5359 9.89899L74.9446 11.1386H76.2617L75.1899 11.9021Z" fill="#030422"/>
<path d="M67.3058 0C66.1159 0 65.1531 0.95217 65.1531 2.12891C65.1531 3.30565 66.1159 4.25782 67.3058 4.25782C68.4957 4.25782 69.4585 3.30565 69.4585 2.12891C69.4585 0.95217 68.4866 0 67.3058 0ZM67.3058 3.57513C66.4974 3.57513 65.8343 2.91939 65.8343 2.11993C65.8343 1.32046 66.4974 0.664722 67.3058 0.664722C68.1142 0.664722 68.7772 1.32046 68.7772 2.11993C68.7772 2.91939 68.1142 3.57513 67.3058 3.57513Z" fill="#030422"/>
<path d="M74.1909 39.3803C74.1909 40.3235 74.9721 41.096 75.9258 41.096C76.8886 41.096 77.6607 40.3235 77.6607 39.3803C77.6607 38.4371 76.8795 37.6646 75.9258 37.6646C74.963 37.6646 74.1909 38.4371 74.1909 39.3803ZM75.9258 38.3383C76.5071 38.3383 76.9794 38.8054 76.9794 39.3803C76.9794 39.9552 76.5071 40.4223 75.9258 40.4223C75.3445 40.4223 74.8722 39.9552 74.8722 39.3803C74.8722 38.8054 75.3445 38.3383 75.9258 38.3383Z" fill="#030422"/>
<path d="M9.01047 13.025C10.2549 13.025 11.2631 12.0279 11.2631 10.7883C11.2631 9.55764 10.2549 8.55157 9.01047 8.55157C7.76609 8.55157 6.74878 9.54866 6.74878 10.7883C6.75786 12.0189 7.76609 13.025 9.01047 13.025ZM9.01047 9.23426C9.88245 9.23426 10.5819 9.93492 10.5819 10.7973C10.5819 11.6596 9.87337 12.3603 9.01047 12.3603C8.13849 12.3603 7.43001 11.6596 7.43001 10.7973C7.43001 9.93492 8.14758 9.23426 9.01047 9.23426Z" fill="#030422"/>
<path d="M15.3687 74.9969C15.6684 75.0687 15.9681 75.1406 16.2679 75.1945L16.4041 74.5298C16.1135 74.4759 15.8228 74.404 15.5321 74.3411L15.3687 74.9969Z" fill="#030422"/>
<path d="M1.34424 57.229C1.34424 57.5254 1.35332 57.8218 1.3624 58.1183L2.04364 58.0823C2.02547 57.8039 2.02547 57.5164 2.02547 57.229C2.02547 56.9415 2.03455 56.6451 2.04364 56.3487L1.3624 56.3127C1.35332 56.6182 1.34424 56.9236 1.34424 57.229Z" fill="#030422"/>
<path d="M3.98755 66.625C4.29637 67.137 4.63245 67.64 4.99577 68.1251L5.54076 67.7298C5.1956 67.2627 4.86861 66.7777 4.56887 66.2926L3.98755 66.625Z" fill="#030422"/>
<path d="M3.74229 64.7565C3.49705 64.2355 3.26997 63.6966 3.07014 63.1576L2.43433 63.3822C2.63415 63.9481 2.87032 64.505 3.13373 65.044L3.74229 64.7565Z" fill="#030422"/>
<path d="M10.6909 72.3559C10.1913 72.0595 9.70084 71.7361 9.2376 71.3948L8.82886 71.9337C9.31026 72.293 9.81892 72.6254 10.3367 72.9308L10.6909 72.3559Z" fill="#030422"/>
<path d="M2.5615 61.4958C2.41617 60.9389 2.30717 60.373 2.21634 59.7981L1.54419 59.8969C1.63502 60.4897 1.7531 61.0826 1.89843 61.6575L2.5615 61.4958Z" fill="#030422"/>
<path d="M7.42989 70.7929L7.89313 70.2899C7.45714 69.9036 7.0484 69.4904 6.65782 69.0593L6.14917 69.5084C6.54883 69.9575 6.98482 70.3887 7.42989 70.7929Z" fill="#030422"/>
<path d="M11.9443 73.7842C12.4893 74.0447 13.0616 74.2692 13.6247 74.4758L13.8518 73.8381C13.3068 73.6494 12.7618 73.4249 12.235 73.1733L11.9443 73.7842Z" fill="#030422"/>
<path d="M2.37984 53.7437L1.70769 53.6089C1.6441 53.9054 1.59869 54.2108 1.54419 54.5072L2.21634 54.606C2.27084 54.3276 2.32534 54.0311 2.37984 53.7437Z" fill="#030422"/>
<path d="M77.0428 63.6606L76.3616 63.6427C76.3525 63.9391 76.3434 64.2266 76.3162 64.514L76.9974 64.5769C77.0246 64.2804 77.0428 63.975 77.0428 63.6606Z" fill="#030422"/>
<path d="M66.8699 75.8682C67.533 75.7245 68.187 75.5358 68.8228 75.2933L68.5776 74.6645C67.9781 74.898 67.3604 75.0777 66.7246 75.2124L66.8699 75.8682Z" fill="#030422"/>
<path d="M73.2917 71.4217L73.8004 71.8708C74.2546 71.3678 74.6633 70.8288 75.0266 70.2629L74.4544 69.9036C74.1092 70.4336 73.7187 70.9456 73.2917 71.4217Z" fill="#030422"/>
<path d="M70.3123 73.8291L70.6574 74.413C71.2478 74.0716 71.811 73.6854 72.3287 73.2632L71.9018 72.7422C71.4022 73.1374 70.8663 73.5057 70.3123 73.8291Z" fill="#030422"/>
<path d="M75.3625 68.2149L75.9893 68.4844C76.2618 67.8735 76.4798 67.2268 76.6523 66.58L75.9893 66.4094C75.8258 67.0202 75.6169 67.631 75.3625 68.2149Z" fill="#030422"/>
<path d="M63.9269 75.4639L63.9087 76.1376C63.9995 76.1376 64.0904 76.1376 64.1812 76.1376C64.4083 76.1376 64.6263 76.1286 64.8442 76.1197L64.8079 75.455C64.5173 75.4639 64.2175 75.4729 63.9269 75.4639Z" fill="#030422"/>
<path d="M76.2618 24.46H75.5806V26.2565H76.2618V24.46Z" fill="#030422"/>
<path d="M76.2618 20.8759H75.5806V22.6724H76.2618V20.8759Z" fill="#030422"/>
<path d="M76.2618 28.0531H75.5806V29.8496H76.2618V28.0531Z" fill="#030422"/>
<path d="M76.2618 31.6552H75.5806V33.4517H76.2618V31.6552Z" fill="#030422"/>
</g>
<defs>
<clipPath id="clip0">
<rect width="78.3509" height="77" fill="white"/>
</clipPath>
</defs>
</svg>
