<svg width="78" height="77" viewBox="0 0 78 77" fill="none" xmlns="http://www.w3.org/2000/svg">
<path d="M13.8242 75.0777C14.1188 75.1496 14.4134 75.2214 14.7079 75.2753L14.8418 74.6106C14.5562 74.5567 14.2705 74.4848 13.9849 74.422L13.8242 75.0777Z" fill="#030422"/>
<path d="M64.4375 75.94C65.0891 75.7963 65.7318 75.6077 66.3567 75.3651L66.1157 74.7363C65.5265 74.9699 64.9195 75.1495 64.2947 75.2843L64.4375 75.94Z" fill="#030422"/>
<path d="M61.5449 75.5448L61.5271 76.2185C61.6164 76.2185 61.7056 76.2185 61.7949 76.2185C62.0181 76.2185 62.2323 76.2095 62.4465 76.2006L62.4108 75.5269C62.1252 75.5448 61.8306 75.5538 61.5449 75.5448Z" fill="#030422"/>
<path d="M22.8161 74.8711C22.8161 73.6944 21.8699 72.7422 20.7005 72.7422C19.5312 72.7422 18.585 73.6944 18.585 74.8711C18.585 76.0478 19.5312 77 20.7005 77C21.8699 77 22.8161 76.0388 22.8161 74.8711ZM19.2634 74.8711C19.2634 74.0716 19.915 73.4159 20.7095 73.4159C21.5039 73.4159 22.1556 74.0716 22.1556 74.8711C22.1556 75.6706 21.5039 76.3263 20.7095 76.3263C19.915 76.3263 19.2634 75.6706 19.2634 74.8711Z" fill="#030422"/>
<path d="M1.18722 26.0499L3.10642 25.0349L5.01669 26.0499L4.65071 23.9031L6.19499 22.385L4.05263 22.0706L3.0975 20.1213L2.14236 22.0616L0 22.376L1.55321 23.8941L1.18722 26.0499ZM1.43717 22.8521L2.58869 22.6814L3.10642 21.6304L3.62416 22.6814L4.77568 22.8521L3.94551 23.6695L4.1419 24.8193L3.11535 24.2803L2.0888 24.8193L2.28518 23.6695L1.43717 22.8521Z" fill="#030422"/>
<path d="M19.3885 5.49745L20.7543 4.76985L22.1201 5.49745L21.8701 3.9614L22.977 2.87449L21.4506 2.64992L20.7543 1.2576L20.0759 2.64992L18.5405 2.87449L19.6474 3.9614L19.3885 5.49745ZM20.5222 3.26075L20.7632 2.7667L21.0042 3.26075L21.5398 3.34159L21.1471 3.72785L21.2363 4.26682L20.7543 4.0153L20.2723 4.26682L20.3615 3.72785L19.9688 3.34159L20.5222 3.26075Z" fill="#030422"/>
<path d="M71.0286 56.4475L72.1354 57.5344L71.8766 59.0704L73.2423 58.3428L74.6081 59.0704L74.3492 57.5344L75.4561 56.4475L73.9297 56.2229L73.2423 54.8306L72.555 56.2229L71.0286 56.4475ZM73.2423 56.3486L73.4834 56.8427L74.0189 56.9235L73.6262 57.3098L73.7154 57.8488L73.2334 57.5973L72.7514 57.8488L72.8406 57.3098L72.4479 56.9235L72.9835 56.8427L73.2423 56.3486Z" fill="#030422"/>
<path d="M73.2416 7.71616L72.3578 10.4649H69.4924L71.8133 12.1626L70.9296 14.9113L73.2505 13.2136L75.5714 14.9113L74.6877 12.1626L77.0085 10.4649H74.1431L73.2416 7.71616ZM73.8932 11.9021L74.2949 13.1417L73.2505 12.3782L72.1972 13.1417L72.5989 11.9021L71.5545 11.1386H72.8488L73.2505 9.89896L73.6522 11.1386H74.9465L73.8932 11.9021Z" fill="#030422"/>
<path d="M66.1454 0C64.976 0 64.0298 0.95217 64.0298 2.12891C64.0298 3.30565 64.976 4.25781 66.1454 4.25781C67.3147 4.25781 68.2609 3.30565 68.2609 2.12891C68.2609 0.95217 67.3058 0 66.1454 0ZM66.1454 3.57513C65.3509 3.57513 64.6993 2.91939 64.6993 2.11992C64.6993 1.32046 65.3509 0.664722 66.1454 0.664722C66.9398 0.664722 67.5915 1.32046 67.5915 2.11992C67.5915 2.91939 66.9398 3.57513 66.1454 3.57513Z" fill="#030422"/>
<path d="M72.9116 39.3803C72.9116 40.3235 73.6793 41.096 74.6166 41.096C75.5628 41.096 76.3215 40.3235 76.3215 39.3803C76.3215 38.4371 75.5539 37.6646 74.6166 37.6646C73.6704 37.6646 72.9116 38.4371 72.9116 39.3803ZM74.6166 38.3383C75.1879 38.3383 75.6521 38.8054 75.6521 39.3803C75.6521 39.9552 75.1879 40.4223 74.6166 40.4223C74.0453 40.4223 73.5811 39.9552 73.5811 39.3803C73.5811 38.8054 74.0453 38.3383 74.6166 38.3383Z" fill="#030422"/>
<path d="M8.85502 13.025C10.078 13.025 11.0688 12.0279 11.0688 10.7883C11.0688 9.55764 10.078 8.55157 8.85502 8.55157C7.63209 8.55157 6.63232 9.54866 6.63232 10.7883C6.64125 12.0189 7.63209 13.025 8.85502 13.025ZM8.85502 9.23426C9.71197 9.23426 10.3993 9.93492 10.3993 10.7973C10.3993 11.6596 9.70304 12.3603 8.85502 12.3603C7.99808 12.3603 7.30181 11.6596 7.30181 10.7973C7.30181 9.93492 8.00701 9.23426 8.85502 9.23426Z" fill="#030422"/>
<path d="M1.32129 57.229C1.32129 57.5255 1.33022 57.8219 1.33914 58.1183L2.00863 58.0824C1.99078 57.8039 1.99078 57.5165 1.99078 57.229C1.99078 56.9416 1.9997 56.6452 2.00863 56.3487L1.33914 56.3128C1.33022 56.6182 1.32129 56.9236 1.32129 57.229Z" fill="#030422"/>
<path d="M3.91895 66.625C4.22245 67.137 4.55273 67.64 4.90979 68.1251L5.44538 67.7298C5.10617 67.2627 4.78482 66.7777 4.49024 66.2926L3.91895 66.625Z" fill="#030422"/>
<path d="M3.67799 64.7565C3.43698 64.2355 3.21382 63.6966 3.01743 63.1576L2.39258 63.3822C2.58896 63.9481 2.82105 64.505 3.07992 65.044L3.67799 64.7565Z" fill="#030422"/>
<path d="M10.5062 72.3559C10.0152 72.0595 9.53321 71.7361 9.07796 71.3947L8.67627 71.9337C9.14937 72.293 9.64926 72.6254 10.1581 72.9308L10.5062 72.3559Z" fill="#030422"/>
<path d="M2.5171 61.4958C2.37428 60.9388 2.26716 60.3729 2.1779 59.798L1.51733 59.8968C1.6066 60.4897 1.72264 61.0826 1.86547 61.6575L2.5171 61.4958Z" fill="#030422"/>
<path d="M7.30234 70.7929L7.75759 70.2899C7.32912 69.9036 6.92742 69.4904 6.54359 69.0592L6.0437 69.5084C6.43647 69.9575 6.86494 70.3887 7.30234 70.7929Z" fill="#030422"/>
<path d="M11.7388 73.7842C12.2744 74.0447 12.8367 74.2692 13.3902 74.4758L13.6133 73.8381C13.0777 73.6494 12.5422 73.4249 12.0244 73.1733L11.7388 73.7842Z" fill="#030422"/>
<path d="M2.33857 53.7437L1.67801 53.6089C1.61553 53.9054 1.57089 54.2108 1.51733 54.5072L2.1779 54.606C2.23145 54.3276 2.28501 54.0311 2.33857 53.7437Z" fill="#030422"/>
<path d="M75.7144 63.6606L75.0449 63.6427C75.036 63.9391 75.027 64.2265 75.0002 64.514L75.6697 64.5769C75.6965 64.2804 75.7144 63.975 75.7144 63.6606Z" fill="#030422"/>
<path d="M72.0278 71.4217L72.5277 71.8709C72.974 71.3678 73.3757 70.8289 73.7328 70.263L73.1704 69.9037C72.8312 70.4336 72.4474 70.9457 72.0278 71.4217Z" fill="#030422"/>
<path d="M69.0996 73.8291L69.4388 74.413C70.019 74.0716 70.5725 73.6854 71.0813 73.2632L70.6617 72.7422C70.1708 73.1374 69.6441 73.5057 69.0996 73.8291Z" fill="#030422"/>
<path d="M74.063 68.2149L74.6789 68.4843C74.9467 67.8735 75.1609 67.2268 75.3305 66.58L74.6789 66.4093C74.5182 67.0202 74.3129 67.631 74.063 68.2149Z" fill="#030422"/>
<path d="M74.9471 24.46H74.2776V26.2566H74.9471V24.46Z" fill="#030422"/>
<path d="M74.9471 20.8759H74.2776V22.6724H74.9471V20.8759Z" fill="#030422"/>
<path d="M74.9471 28.0531H74.2776V29.8496H74.9471V28.0531Z" fill="#030422"/>
<path d="M74.9471 31.6552H74.2776V33.4517H74.9471V31.6552Z" fill="#030422"/>
<path d="M55.6093 63.062C55.2457 63.062 54.8821 62.9335 54.5873 62.6764C54.5677 62.6665 48.5833 57.6134 48.5833 52.8472C48.5833 48.9511 51.7278 45.7867 55.5995 45.7867C59.4712 45.7867 62.6157 48.9511 62.6157 52.8472C62.6157 57.6036 56.6313 62.6566 56.5723 62.7061C56.2972 62.9533 55.9533 63.062 55.6093 63.062ZM55.5995 47.359C52.5925 47.359 50.1359 49.8213 50.1359 52.857C50.1359 56.3972 54.7151 60.7976 55.5602 61.4601C56.4741 60.7976 61.0533 56.3972 61.0533 52.857C61.0533 49.8311 58.6065 47.359 55.5995 47.359ZM55.5995 55.9917C53.8798 55.9917 52.4844 54.5875 52.4844 52.857C52.4844 51.1265 53.8798 49.7224 55.5995 49.7224C57.3192 49.7224 58.7145 51.1265 58.7145 52.857C58.7145 54.5875 57.3192 55.9917 55.5995 55.9917ZM55.5995 51.2848C54.7347 51.2848 54.0371 51.9868 54.0371 52.857C54.0371 53.7272 54.7347 54.4293 55.5995 54.4293C56.4642 54.4293 57.1619 53.7272 57.1619 52.857C57.1619 51.9868 56.4544 51.2848 55.5995 51.2848Z" fill="#030422"/>
<path d="M39.218 30.4792H36.103C35.6706 30.4792 35.3267 30.8352 35.3267 31.2604C35.3267 31.6856 35.6804 32.0416 36.103 32.0416H39.218C39.6504 32.0416 39.9943 31.6856 39.9943 31.2604C39.9943 30.8352 39.6504 30.4792 39.218 30.4792Z" fill="#030422"/>
<path d="M44.9864 42.029C45.0651 42.0389 45.1338 42.0389 45.2125 42.029C46.372 41.6731 47.394 40.971 48.131 40.0019C48.3963 39.6558 48.3373 39.1614 47.9934 38.8944C47.6495 38.6274 47.1581 38.6867 46.8928 39.0328C46.3523 39.7349 45.6055 40.259 44.7604 40.5161C44.3281 40.5754 44.0333 40.9809 44.0922 41.416C44.1512 41.8511 44.5541 42.1477 44.9864 42.0884V42.029Z" fill="#030422"/>
<path d="M32.3689 43.4827C32.6735 43.7892 33.1649 43.7892 33.4695 43.4827C34.1082 42.8498 34.9238 42.4345 35.8082 42.2862C36.2406 42.217 36.5354 41.8016 36.4568 41.3764C36.3782 40.9512 35.9753 40.6447 35.5528 40.7238C34.3736 40.9314 33.2828 41.4951 32.4377 42.3455C32.1134 42.6224 32.0643 43.1168 32.3493 43.453C32.3493 43.4629 32.3591 43.4728 32.3689 43.4827Z" fill="#030422"/>
<path d="M36.4863 50.8794C35.7493 50.8794 35.0221 50.6915 34.3736 50.3256C34.0002 50.1081 33.5186 50.2366 33.3025 50.6124C33.0863 50.9881 33.214 51.4727 33.5874 51.6902C34.462 52.2044 35.4643 52.4714 36.4765 52.4714H36.9875C37.4198 52.4714 37.7638 52.1154 37.7638 51.6902C37.7638 51.2551 37.41 50.909 36.9875 50.909L36.4863 50.8794Z" fill="#030422"/>
<path d="M45.4091 32.4174C45.8415 32.4272 46.1953 32.0713 46.1953 31.646C46.1953 31.3197 45.9987 31.0231 45.7039 30.9044C45.0062 30.6176 44.2594 30.4792 43.5027 30.4792H42.3432C41.9108 30.4792 41.5669 30.8352 41.5669 31.2604C41.5669 31.6856 41.9207 32.0416 42.3432 32.0416H43.5126C44.0629 32.0416 44.6132 32.1504 45.1143 32.358C45.2126 32.3976 45.3109 32.4174 45.4091 32.4174Z" fill="#030422"/>
<path d="M37.99 41.4654C37.99 41.9005 38.3438 42.2466 38.7663 42.2466H41.8813C42.3137 42.2466 42.6577 41.8907 42.6577 41.4654C42.6577 41.0304 42.3039 40.6843 41.8813 40.6843H38.7663C38.3438 40.6744 37.99 41.0304 37.99 41.4654Z" fill="#030422"/>
<path d="M48.5727 37.3716C49.0051 37.3716 49.349 37.0156 49.349 36.5904C49.349 36.5014 49.349 36.4223 49.349 36.3333C49.349 35.206 49.0247 34.0984 48.4253 33.1491C48.1698 32.7931 47.6883 32.714 47.3346 32.9711C47.0103 33.2085 46.912 33.6436 47.1085 33.9996C47.5606 34.7016 47.7964 35.5224 47.7866 36.353C47.7866 36.4124 47.7866 36.4816 47.7866 36.5508C47.7866 36.9859 48.1403 37.332 48.5629 37.332V37.3716H48.5727Z" fill="#030422"/>
<path d="M31.632 44.8967C31.2095 44.8176 30.8066 45.1044 30.728 45.5296C30.5216 46.7261 30.6788 47.9622 31.1997 49.0598C31.3765 49.4554 31.8384 49.6334 32.2315 49.4554C32.6245 49.2774 32.8014 48.8126 32.6245 48.4171C32.6245 48.4072 32.6147 48.3973 32.6147 48.3874C32.2413 47.5765 32.1234 46.6767 32.2708 45.7966C32.3396 45.3813 32.0546 44.9758 31.632 44.8967Z" fill="#030422"/>
<path d="M43.2278 50.8794H40.1127C39.6804 50.8794 39.3364 51.2353 39.3364 51.6606C39.3364 52.0957 39.6902 52.4418 40.1127 52.4418H43.2278C43.6602 52.4418 44.0041 52.0858 44.0041 51.6606C44.0041 51.2353 43.6602 50.8794 43.2278 50.8794Z" fill="#030422"/>
<path d="M22.837 28.2938L14.2092 23.4682L22.0509 19.0678C22.5226 18.7909 23.122 18.7909 23.6035 19.0777L31.455 23.4682L22.837 28.2938ZM17.4324 23.4781L22.8469 26.504L28.2614 23.4781L22.8469 20.4522L17.4324 23.4781Z" fill="#030422"/>
<path d="M23.623 38.7263V29.0849L32.2017 24.289V33.1294L32.1624 33.248C32.1624 33.2579 32.1624 33.2579 32.1526 33.2678C32.1526 33.2975 32.1526 33.3172 32.1428 33.3469L32.1329 33.4755L32.0838 33.5941C32.015 33.7424 31.9364 33.8809 31.8381 34.0094C31.7399 34.1182 31.6613 34.1973 31.5826 34.2567C31.5433 34.2863 31.504 34.3259 31.4647 34.3555L31.3959 34.3951L23.623 38.7263ZM25.1757 30.0046V36.0564L30.5803 33.0404L30.5705 32.9612L30.6393 32.8327V26.949L25.1757 30.0046Z" fill="#030422"/>
<path d="M22.0608 38.7263L14.2879 34.3753C14.1995 34.316 14.1405 34.2764 14.1012 34.2369C14.0324 34.1775 13.9538 34.1182 13.8949 34.049C13.7573 33.871 13.6689 33.7326 13.6099 33.5842C13.5706 33.4853 13.5313 33.3865 13.5018 33.2876L13.4822 33.159C13.4822 33.0898 13.4723 33.0206 13.4822 32.9514V24.289L22.0608 29.0849V38.7263ZM15.0446 32.9711C15.0544 32.9909 15.0741 33.0107 15.0839 33.0404L20.4984 36.0663V30.0145L15.0348 26.9589V32.9711H15.0446Z" fill="#030422"/>
</svg>
