<svg width="79" height="77" viewBox="0 0 79 77" fill="none" xmlns="http://www.w3.org/2000/svg">
<path d="M15.4368 75.0777C15.7364 75.1496 16.0361 75.2214 16.3357 75.2753L16.4719 74.6106C16.1814 74.5567 15.8908 74.4848 15.6002 74.422L15.4368 75.0777Z" fill="#030422"/>
<path d="M66.9226 75.9401C67.5855 75.7963 68.2393 75.6077 68.8749 75.3652L68.6297 74.7364C68.0304 74.9699 67.413 75.1496 66.7773 75.2843L66.9226 75.9401Z" fill="#030422"/>
<path d="M63.9806 75.5448L63.9624 76.2185C64.0532 76.2185 64.144 76.2185 64.2348 76.2185C64.4618 76.2185 64.6798 76.2095 64.8977 76.2006L64.8614 75.5269C64.5708 75.5448 64.2711 75.5538 63.9806 75.5448Z" fill="#030422"/>
<path d="M23.2096 74.8711C23.2096 73.6944 22.2471 72.7422 21.0576 72.7422C19.868 72.7422 18.9055 73.6944 18.9055 74.8711C18.9055 76.0478 19.868 77 21.0576 77C22.2471 77 23.2096 76.0388 23.2096 74.8711ZM19.5956 74.8711C19.5956 74.0716 20.2585 73.4159 21.0667 73.4159C21.8748 73.4159 22.5377 74.0716 22.5377 74.8711C22.5377 75.6706 21.8748 76.3263 21.0667 76.3263C20.2585 76.3263 19.5956 75.6706 19.5956 74.8711Z" fill="#030422"/>
<path d="M1.20769 26.0499L3.15998 25.0349L5.10319 26.0499L4.73089 23.903L6.3018 22.385L4.1225 22.0706L3.1509 20.1213L2.1793 22.0616L0 22.376L1.57999 23.8941L1.20769 26.0499ZM1.46195 22.8521L2.63332 22.6814L3.15998 21.6304L3.68665 22.6814L4.85802 22.8521L4.01354 23.6695L4.21331 24.8193L3.16906 24.2803L2.12481 24.8193L2.32458 23.6695L1.46195 22.8521Z" fill="#030422"/>
<path d="M19.7227 5.49742L21.112 4.76982L22.5014 5.49742L22.2471 3.96137L23.3731 2.87446L21.8203 2.64989L21.112 1.25757L20.4219 2.64989L18.8601 2.87446L19.9861 3.96137L19.7227 5.49742ZM20.876 3.26072L21.1211 2.76667L21.3663 3.26072L21.9111 3.34156L21.5116 3.72782L21.6024 4.26678L21.112 4.01527L20.6217 4.26678L20.7125 3.72782L20.313 3.34156L20.876 3.26072Z" fill="#030422"/>
<path d="M72.2527 56.4475L73.3787 57.5344L73.1153 59.0705L74.5046 58.3428L75.8939 59.0705L75.6306 57.5344L76.7566 56.4475L75.2038 56.2229L74.5046 54.8306L73.8054 56.2229L72.2527 56.4475ZM74.5046 56.3487L74.7498 56.8427L75.2946 56.9236L74.8951 57.3098L74.9859 57.8488L74.4955 57.5973L74.0052 57.8488L74.096 57.3098L73.6965 56.9236L74.2413 56.8427L74.5046 56.3487Z" fill="#030422"/>
<path d="M74.5049 7.71619L73.606 10.4649H70.6912L73.0521 12.1626L72.1531 14.9114L74.514 13.2136L76.8749 14.9114L75.976 12.1626L78.3369 10.4649H75.422L74.5049 7.71619ZM75.1678 11.9021L75.5764 13.1418L74.514 12.3782L73.4425 13.1418L73.8511 11.9021L72.7887 11.1386H74.1054L74.514 9.89899L74.9226 11.1386H76.2393L75.1678 11.9021Z" fill="#030422"/>
<path d="M67.2858 0C66.0963 0 65.1338 0.95217 65.1338 2.12891C65.1338 3.30565 66.0963 4.25782 67.2858 4.25782C68.4754 4.25782 69.4379 3.30565 69.4379 2.12891C69.4379 0.95217 68.4663 0 67.2858 0ZM67.2858 3.57513C66.4777 3.57513 65.8148 2.91939 65.8148 2.11993C65.8148 1.32046 66.4777 0.664722 67.2858 0.664722C68.094 0.664722 68.7569 1.32046 68.7569 2.11993C68.7569 2.91939 68.094 3.57513 67.2858 3.57513Z" fill="#030422"/>
<path d="M74.1689 39.3803C74.1689 40.3235 74.9499 41.096 75.9033 41.096C76.8658 41.096 77.6377 40.3235 77.6377 39.3803C77.6377 38.4371 76.8567 37.6646 75.9033 37.6646C74.9408 37.6646 74.1689 38.4371 74.1689 39.3803ZM75.9033 38.3383C76.4844 38.3383 76.9566 38.8054 76.9566 39.3803C76.9566 39.9552 76.4844 40.4223 75.9033 40.4223C75.3222 40.4223 74.85 39.9552 74.85 39.3803C74.85 38.8054 75.3222 38.3383 75.9033 38.3383Z" fill="#030422"/>
<path d="M9.00785 13.025C10.2519 13.025 11.2598 12.0279 11.2598 10.7883C11.2598 9.55764 10.2519 8.55157 9.00785 8.55157C7.76383 8.55157 6.74683 9.54866 6.74683 10.7883C6.75591 12.0189 7.76383 13.025 9.00785 13.025ZM9.00785 9.23426C9.87957 9.23426 10.5788 9.93492 10.5788 10.7973C10.5788 11.6596 9.87049 12.3603 9.00785 12.3603C8.13613 12.3603 7.42786 11.6596 7.42786 10.7973C7.42786 9.93492 8.14521 9.23426 9.00785 9.23426Z" fill="#030422"/>
<path d="M1.34375 57.229C1.34375 57.5254 1.35283 57.8219 1.36191 58.1183L2.04294 58.0824C2.02478 57.8039 2.02478 57.5165 2.02478 57.229C2.02478 56.9416 2.03386 56.6451 2.04294 56.3487L1.36191 56.3128C1.35283 56.6182 1.34375 56.9236 1.34375 57.229Z" fill="#030422"/>
<path d="M3.98633 66.6249C4.29506 67.1369 4.63104 67.64 4.99425 68.125L5.53908 67.7298C5.19402 67.2627 4.86713 66.7776 4.56747 66.2926L3.98633 66.6249Z" fill="#030422"/>
<path d="M3.74117 64.7565C3.496 64.2355 3.26899 63.6966 3.06922 63.1576L2.43359 63.3822C2.63336 63.9481 2.86945 64.505 3.13279 65.044L3.74117 64.7565Z" fill="#030422"/>
<path d="M10.6877 72.3559C10.1882 72.0595 9.69789 71.7361 9.23479 71.3948L8.82617 71.9337C9.30743 72.293 9.81594 72.6254 10.3335 72.9308L10.6877 72.3559Z" fill="#030422"/>
<path d="M2.56071 61.4958C2.41542 60.9389 2.30646 60.373 2.21565 59.7981L1.5437 59.8969C1.63451 60.4897 1.75255 61.0826 1.89784 61.6575L2.56071 61.4958Z" fill="#030422"/>
<path d="M7.4278 70.7929L7.8909 70.2899C7.45504 69.9036 7.04642 69.4904 6.65596 69.0593L6.14746 69.5084C6.547 69.9575 6.98286 70.3887 7.4278 70.7929Z" fill="#030422"/>
<path d="M11.9409 73.7842C12.4857 74.0447 13.0578 74.2692 13.6208 74.4758L13.8478 73.8381C13.303 73.6494 12.7582 73.4249 12.2315 73.1733L11.9409 73.7842Z" fill="#030422"/>
<path d="M2.3791 53.7437L1.70715 53.6089C1.64359 53.9054 1.59818 54.2108 1.5437 54.5072L2.21565 54.606C2.27013 54.3276 2.32462 54.0311 2.3791 53.7437Z" fill="#030422"/>
<path d="M77.0199 63.6606L76.3389 63.6427C76.3298 63.9391 76.3207 64.2265 76.2935 64.514L76.9745 64.5769C77.0017 64.2804 77.0199 63.975 77.0199 63.6606Z" fill="#030422"/>
<path d="M73.2698 71.4217L73.7783 71.8709C74.2323 71.3678 74.6409 70.8289 75.0041 70.263L74.4321 69.9037C74.087 70.4336 73.6966 70.9457 73.2698 71.4217Z" fill="#030422"/>
<path d="M70.2915 73.8291L70.6366 74.413C71.2268 74.0716 71.7898 73.6854 72.3073 73.2632L71.8806 72.7422C71.3811 73.1374 70.8454 73.5057 70.2915 73.8291Z" fill="#030422"/>
<path d="M75.3401 68.2149L75.9666 68.4844C76.2391 67.8735 76.457 67.2268 76.6295 66.58L75.9666 66.4094C75.8032 67.0202 75.5943 67.631 75.3401 68.2149Z" fill="#030422"/>
<path d="M76.2391 24.46H75.5581V26.2565H76.2391V24.46Z" fill="#030422"/>
<path d="M76.2391 20.8759H75.5581V22.6724H76.2391V20.8759Z" fill="#030422"/>
<path d="M76.2391 28.0531H75.5581V29.8496H76.2391V28.0531Z" fill="#030422"/>
<path d="M76.2391 31.6552H75.5581V33.4517H76.2391V31.6552Z" fill="#030422"/>
<path d="M25.4575 21.3233C24.3088 21.3233 23.3799 22.2423 23.3799 23.3786C23.3799 24.515 24.3088 25.434 25.4575 25.434C26.6062 25.434 27.5352 24.515 27.5352 23.3786C27.5252 22.2522 26.5963 21.3332 25.4575 21.3233ZM25.4575 24.0703C25.078 24.0703 24.7683 23.764 24.7683 23.3885C24.7683 23.013 25.078 22.7067 25.4575 22.7067C25.8371 22.7067 26.1468 23.013 26.1468 23.3885C26.1468 23.764 25.8371 24.0703 25.4575 24.0703Z" fill="#030422"/>
<path d="M31.6807 21.3233C30.532 21.3233 29.603 22.2423 29.603 23.3786C29.603 24.515 30.532 25.434 31.6807 25.434C32.8294 25.434 33.7584 24.515 33.7584 23.3786C33.7584 22.2522 32.8294 21.3332 31.6807 21.3233ZM31.6807 24.0703C31.3011 24.0703 30.9915 23.764 30.9915 23.3885C30.9915 23.013 31.3011 22.7067 31.6807 22.7067C32.0603 22.7067 32.3699 23.013 32.3699 23.3885C32.3799 23.764 32.0702 24.0703 31.6807 24.0703Z" fill="#030422"/>
<path d="M37.9134 21.3233C36.7647 21.3233 35.8357 22.2423 35.8357 23.3786C35.8357 24.515 36.7647 25.434 37.9134 25.434C39.0621 25.434 39.991 24.515 39.991 23.3786C39.991 22.2522 39.0621 21.3332 37.9134 21.3233ZM37.9134 24.0703C37.5338 24.0703 37.2241 23.764 37.2241 23.3885C37.2241 23.013 37.5338 22.7067 37.9134 22.7067C38.2929 22.7067 38.6026 23.013 38.6026 23.3885C38.6026 23.764 38.2929 24.0703 37.9134 24.0703Z" fill="#030422"/>
<path d="M49.6805 21.3233H42.7583C42.3787 21.3233 42.0691 21.6297 42.0691 22.0051V24.7423C42.0691 25.1178 42.3787 25.4241 42.7583 25.4241H49.6805C50.0601 25.4241 50.3697 25.1178 50.3697 24.7423V22.0051C50.3697 21.6297 50.0601 21.3233 49.6805 21.3233ZM48.9913 24.0703H43.4575V22.6968H48.9913V24.0703Z" fill="#030422"/>
<path d="M36.8748 35.7105C38.7627 35.7105 40.6006 36.3528 42.0689 37.5188L42.9879 36.4912C38.8426 33.1414 32.7394 33.754 29.3533 37.8647C25.9671 41.9654 26.5864 48.0029 30.7417 51.3527C34.4875 54.3763 39.9114 54.2084 43.4574 50.9475V48.9219C40.6705 52.5187 35.4564 53.2005 31.8205 50.4436C29.9726 49.0404 28.8039 46.9357 28.6041 44.6433C29.9326 45.2954 31.391 45.6413 32.8693 45.6511C34.5474 45.6511 36.1955 45.2164 37.6439 44.3765C38.2033 44.1097 38.7926 43.912 39.3919 43.7737L39.302 43.6946C38.9524 43.3883 38.7227 42.9832 38.6328 42.5385C38.0634 42.6966 37.5141 42.8943 36.9847 43.1512L36.9147 43.1907C36.7549 43.2895 33.0491 45.6116 28.5941 43.0919C29.0436 38.9022 32.6096 35.7105 36.8748 35.7105Z" fill="#030422"/>
<path d="M52.4472 60.3545C52.4472 60.73 52.1376 61.0363 51.758 61.0363H21.9915C21.6119 61.0363 21.3023 60.73 21.3023 60.3545V28.1711H52.4472V34.337H53.8356V20.6415C53.8356 19.5052 52.9067 18.5862 51.758 18.5862H21.9915C20.8428 18.5862 19.9138 19.5052 19.9138 20.6415V60.3545C19.9138 61.4909 20.8428 62.4098 21.9915 62.4098H51.758C52.9067 62.4098 53.8356 61.4909 53.8356 60.3545V56.9356H52.4472V60.3545ZM21.3023 20.6415C21.3023 20.266 21.6119 19.9597 21.9915 19.9597H51.758C52.1376 19.9597 52.4472 20.266 52.4472 20.6415V26.8075H21.3023V20.6415Z" fill="#030422"/>
<path d="M64.0444 41.7085L58.8702 35.9378C58.6904 35.7402 58.4207 35.6611 58.171 35.7303C58.111 35.7204 46.1046 35.7204 46.0546 35.7303C45.8049 35.6611 45.5252 35.7402 45.3554 35.9378L40.1812 41.7085C39.9315 41.995 39.9515 42.4199 40.2412 42.6769L43.1379 45.1966C43.4276 45.4436 43.8571 45.4239 44.1168 45.1373L44.866 44.3073V54.8803C44.866 55.2558 45.1756 55.5621 45.5552 55.5621H58.6105C58.99 55.5621 59.2997 55.2558 59.2997 54.8803V44.2085L60.1288 45.1373C60.3785 45.4239 60.818 45.4436 61.1077 45.1966L64.0044 42.6769C64.2741 42.4199 64.2941 41.995 64.0444 41.7085ZM56.2531 37.0741L52.0678 40.1472L47.9325 37.0741H56.2531ZM60.6881 43.7144L59.0999 41.9456C58.8402 41.669 58.4007 41.6492 58.111 41.9061C57.9712 42.0346 57.8913 42.2124 57.8913 42.4002V54.1886H46.2244V42.499C46.2144 42.1136 45.8948 41.8172 45.5052 41.8271C45.3154 41.8369 45.1456 41.9061 45.0158 42.0444L43.5175 43.7144L41.6596 42.0939L45.9547 37.3113L51.6483 41.5405C51.898 41.7184 52.2277 41.7282 52.4774 41.5405L58.2509 37.3014L62.546 42.084L60.6881 43.7144Z" fill="#030422"/>
</svg>
