<svg width="78" height="77" viewBox="0 0 78 77" fill="none" xmlns="http://www.w3.org/2000/svg">
<path d="M52.4051 62.5028H23.3335C21.9688 62.5028 20.8594 61.3863 20.8594 60.013V30.867C20.8594 30.2347 21.3699 29.7209 21.9983 29.7209H53.2789C54.1527 29.7209 54.8694 30.4422 54.8694 31.3215V60.013C54.8792 61.3863 53.7698 62.5028 52.4051 62.5028ZM22.2241 31.0943V60.013C22.2241 60.6256 22.7248 61.1294 23.3335 61.1294H52.4051C53.0138 61.1294 53.5145 60.6256 53.5145 60.013V31.3215C53.5145 31.1931 53.4163 31.0943 53.2887 31.0943H22.2241Z" fill="#030422"/>
<path d="M48.4385 34.078H47.0738V19.9595H28.7531V34.078H27.3884V19.9101C27.3884 19.179 27.9775 18.5961 28.6942 18.5961H47.1229C47.8494 18.5961 48.4385 19.1889 48.4385 19.9101V34.078Z" fill="#030422"/>
<path d="M29.4407 37.7238H26.7015C26.2695 37.7238 25.916 37.3681 25.916 36.9334V34.1768C25.916 33.7421 26.2695 33.3864 26.7015 33.3864H29.4407C29.8727 33.3864 30.2262 33.7421 30.2262 34.1768V36.9334C30.2262 37.3681 29.8727 37.7238 29.4407 37.7238ZM27.2709 36.3603H28.8615V34.7598H27.2709V36.3603Z" fill="#030422"/>
<path d="M49.1653 37.7238H46.4261C45.9941 37.7238 45.6406 37.3681 45.6406 36.9334V34.1768C45.6406 33.7421 45.9941 33.3864 46.4261 33.3864H49.1653C49.5973 33.3864 49.9508 33.7421 49.9508 34.1768V36.9334C49.9508 37.3681 49.5973 37.7238 49.1653 37.7238ZM47.0053 36.3603H48.5959V34.7598H47.0053V36.3603Z" fill="#030422"/>
<path d="M36.7356 46.4577H31.0706V45.7759H36.7356C37.1774 45.7759 37.5505 45.4499 37.6193 45.0053C37.8353 43.5925 38.7582 40.3024 42.6265 40.3024C47.3097 40.3024 47.7221 45.361 47.7319 45.4104L47.0545 45.4598C47.0447 45.2819 46.6814 40.9841 42.6363 40.9841C39.4062 40.9841 38.5323 43.5727 38.2967 45.114C38.1789 45.8846 37.5211 46.4577 36.7356 46.4577Z" fill="#030422"/>
<path d="M29.0284 58.778H25.4939C24.9735 58.778 24.5415 58.3531 24.5415 57.8196V53.6404H25.219V57.8196C25.219 57.9678 25.3368 58.0864 25.4939 58.0864H29.0284V58.778Z" fill="#030422"/>
<path d="M43.8441 55.7152H41.4878C41.0263 55.7152 40.6532 55.3398 40.6532 54.8754V51.6051H38.994C38.6798 51.6051 38.3951 51.4273 38.2478 51.1408C38.1005 50.8542 38.13 50.5183 38.3263 50.2614L42.0278 45.272C42.1849 45.0646 42.4303 44.946 42.6954 44.9361C42.9605 44.9361 43.206 45.0646 43.363 45.272L46.8779 50.0737C47.0645 50.3306 47.0939 50.6665 46.9565 50.9432C46.819 51.2297 46.5245 51.4075 46.2103 51.4075H44.6787V54.8655C44.6787 55.3398 44.3056 55.7152 43.8441 55.7152ZM42.018 54.3518H43.314V50.8938C43.314 50.4294 43.687 50.054 44.1485 50.054H45.1598L42.6954 46.675L40.0543 50.2417H41.1834C41.6449 50.2417 42.018 50.6171 42.018 51.0815V54.3518ZM45.7783 50.9036C45.7783 50.9036 45.7881 50.9036 45.7783 50.9036V50.9036Z" fill="#030422"/>
<path d="M29.5976 45.7068H28.7925V46.5169H29.5976V45.7068Z" fill="#030422"/>
<path d="M24.7869 25.5797H15.9309V19.6912C15.9309 19.0885 16.4218 18.5945 17.0207 18.5945H24.7869C25.3858 18.5945 25.8767 19.0885 25.8767 19.6912V24.483C25.8767 25.0857 25.3858 25.5797 24.7869 25.5797ZM17.2956 24.2064H24.5218V19.958H17.2956V24.2064Z" fill="#030422"/>
<path d="M18.837 58.4322H17.0698C16.4512 58.4322 15.9407 57.9184 15.9407 57.296V24.8896H17.3054V57.0688H18.8468V58.4322H18.837Z" fill="#030422"/>
<path d="M19.966 21.5403H18.8369V22.6765H19.966V21.5403Z" fill="#030422"/>
<path d="M22.8036 21.5403H21.6746V22.6765H22.8036V21.5403Z" fill="#030422"/>
<path d="M22.8036 21.5403H21.6746V22.6765H22.8036V21.5403Z" fill="#030422"/>
<path d="M59.8962 25.5812H50.6279V24.2079H58.5315V19.9595H50.6279V18.5862H58.8064C59.4053 18.5862 59.8962 19.0802 59.8962 19.6829V25.5812Z" fill="#030422"/>
<path d="M58.7576 58.4322H56.9314V57.0589H58.5318V24.8896H59.8965V57.296C59.8965 57.9283 59.3859 58.4322 58.7576 58.4322Z" fill="#030422"/>
<path d="M57.1669 21.5502H56.0378V22.6864H57.1669V21.5502Z" fill="#030422"/>
<path d="M52.2187 21.5502H51.0896V22.6864H52.2187V21.5502Z" fill="#030422"/>
<path d="M54.6931 21.5502H53.564V22.6864H54.6931V21.5502Z" fill="#030422"/>
<path d="M15.1753 75.0777C15.4699 75.1496 15.7644 75.2214 16.059 75.2753L16.1929 74.6106C15.9073 74.5567 15.6216 74.4848 15.336 74.422L15.1753 75.0777Z" fill="#030422"/>
<path d="M65.7883 75.9401C66.44 75.7963 67.0827 75.6077 67.7075 75.3652L67.4665 74.7364C66.8774 74.9699 66.2704 75.1496 65.6455 75.2843L65.7883 75.9401Z" fill="#030422"/>
<path d="M62.896 75.5448L62.8782 76.2185C62.9674 76.2185 63.0567 76.2185 63.146 76.2185C63.3691 76.2185 63.5834 76.2095 63.7976 76.2006L63.7619 75.5269C63.4762 75.5448 63.1817 75.5538 62.896 75.5448Z" fill="#030422"/>
<path d="M22.8161 74.8711C22.8161 73.6944 21.8699 72.7422 20.7005 72.7422C19.5312 72.7422 18.585 73.6944 18.585 74.8711C18.585 76.0478 19.5312 77 20.7005 77C21.8699 77 22.8161 76.0388 22.8161 74.8711ZM19.2634 74.8711C19.2634 74.0716 19.915 73.4159 20.7095 73.4159C21.5039 73.4159 22.1556 74.0716 22.1556 74.8711C22.1556 75.6706 21.5039 76.3263 20.7095 76.3263C19.915 76.3263 19.2634 75.6706 19.2634 74.8711Z" fill="#030422"/>
<path d="M1.18722 26.0499L3.10642 25.0349L5.01669 26.0499L4.65071 23.903L6.19499 22.385L4.05263 22.0706L3.0975 20.1213L2.14236 22.0616L0 22.376L1.55321 23.8941L1.18722 26.0499ZM1.43717 22.8521L2.58869 22.6814L3.10642 21.6304L3.62416 22.6814L4.77568 22.8521L3.94551 23.6695L4.1419 24.8193L3.11535 24.2803L2.0888 24.8193L2.28518 23.6695L1.43717 22.8521Z" fill="#030422"/>
<path d="M19.3883 5.49742L20.7541 4.76982L22.1198 5.49742L21.8699 3.96137L22.9768 2.87446L21.4503 2.64989L20.7541 1.25757L20.0756 2.64989L18.5403 2.87446L19.6472 3.96137L19.3883 5.49742ZM20.522 3.26072L20.763 2.76667L21.004 3.26072L21.5396 3.34156L21.1468 3.72782L21.2361 4.26678L20.7541 4.01527L20.272 4.26678L20.3613 3.72782L19.9685 3.34156L20.522 3.26072Z" fill="#030422"/>
<path d="M71.0281 56.4475L72.135 57.5344L71.8761 59.0704L73.2419 58.3428L74.6076 59.0704L74.3487 57.5344L75.4556 56.4475L73.9292 56.2229L73.2419 54.8306L72.5545 56.2229L71.0281 56.4475ZM73.2419 56.3487L73.4829 56.8427L74.0185 56.9236L73.6257 57.3098L73.715 57.8488L73.2329 57.5973L72.7509 57.8488L72.8402 57.3098L72.4474 56.9236L72.983 56.8427L73.2419 56.3487Z" fill="#030422"/>
<path d="M73.2418 7.71619L72.3581 10.4649H69.4927L71.8136 12.1626L70.9298 14.9114L73.2507 13.2136L75.5716 14.9114L74.6879 12.1626L77.0088 10.4649H74.1434L73.2418 7.71619ZM73.8934 11.9021L74.2951 13.1418L73.2507 12.3782L72.1974 13.1418L72.5991 11.9021L71.5547 11.1386H72.849L73.2507 9.89899L73.6524 11.1386H74.9468L73.8934 11.9021Z" fill="#030422"/>
<path d="M66.1454 0C64.976 0 64.0298 0.95217 64.0298 2.12891C64.0298 3.30565 64.976 4.25782 66.1454 4.25782C67.3147 4.25782 68.2609 3.30565 68.2609 2.12891C68.2609 0.95217 67.3058 0 66.1454 0ZM66.1454 3.57513C65.3509 3.57513 64.6993 2.91939 64.6993 2.11993C64.6993 1.32046 65.3509 0.664722 66.1454 0.664722C66.9398 0.664722 67.5915 1.32046 67.5915 2.11993C67.5915 2.91939 66.9398 3.57513 66.1454 3.57513Z" fill="#030422"/>
<path d="M72.9116 39.3803C72.9116 40.3235 73.6793 41.096 74.6166 41.096C75.5628 41.096 76.3215 40.3235 76.3215 39.3803C76.3215 38.4371 75.5539 37.6646 74.6166 37.6646C73.6704 37.6646 72.9116 38.4371 72.9116 39.3803ZM74.6166 38.3383C75.1879 38.3383 75.6521 38.8054 75.6521 39.3803C75.6521 39.9552 75.1879 40.4223 74.6166 40.4223C74.0453 40.4223 73.5811 39.9552 73.5811 39.3803C73.5811 38.8054 74.0453 38.3383 74.6166 38.3383Z" fill="#030422"/>
<path d="M8.85502 13.025C10.078 13.025 11.0688 12.0279 11.0688 10.7883C11.0688 9.55764 10.078 8.55157 8.85502 8.55157C7.63209 8.55157 6.63232 9.54866 6.63232 10.7883C6.64125 12.0189 7.63209 13.025 8.85502 13.025ZM8.85502 9.23426C9.71197 9.23426 10.3993 9.93492 10.3993 10.7973C10.3993 11.6596 9.70304 12.3603 8.85502 12.3603C7.99808 12.3603 7.30181 11.6596 7.30181 10.7973C7.30181 9.93492 8.00701 9.23426 8.85502 9.23426Z" fill="#030422"/>
<path d="M1.32104 57.229C1.32104 57.5254 1.32997 57.8219 1.3389 58.1183L2.00839 58.0824C1.99053 57.8039 1.99053 57.5165 1.99053 57.229C1.99053 56.9416 1.99946 56.6451 2.00839 56.3487L1.3389 56.3128C1.32997 56.6182 1.32104 56.9236 1.32104 57.229Z" fill="#030422"/>
<path d="M3.9187 66.6249C4.2222 67.1369 4.55248 67.64 4.90954 68.125L5.44513 67.7298C5.10593 67.2627 4.78457 66.7776 4.49 66.2926L3.9187 66.6249Z" fill="#030422"/>
<path d="M3.67775 64.7565C3.43673 64.2355 3.21357 63.6966 3.01719 63.1576L2.39233 63.3822C2.58872 63.9481 2.82081 64.505 3.07967 65.044L3.67775 64.7565Z" fill="#030422"/>
<path d="M10.5064 72.3559C10.0155 72.0595 9.53346 71.7361 9.07821 71.3948L8.67651 71.9337C9.14962 72.293 9.6495 72.6254 10.1583 72.9308L10.5064 72.3559Z" fill="#030422"/>
<path d="M2.51735 61.4958C2.37452 60.9389 2.2674 60.373 2.17814 59.7981L1.51758 59.8969C1.60684 60.4897 1.72289 61.0826 1.86571 61.6575L2.51735 61.4958Z" fill="#030422"/>
<path d="M7.30185 70.7929L7.7571 70.2899C7.32863 69.9036 6.92694 69.4904 6.5431 69.0593L6.04321 69.5084C6.43598 69.9575 6.86445 70.3887 7.30185 70.7929Z" fill="#030422"/>
<path d="M11.7383 73.7842C12.2739 74.0447 12.8362 74.2692 13.3897 74.4758L13.6128 73.8381C13.0773 73.6494 12.5417 73.4249 12.0239 73.1733L11.7383 73.7842Z" fill="#030422"/>
<path d="M2.33882 53.7437L1.67826 53.6089C1.61577 53.9054 1.57114 54.2108 1.51758 54.5072L2.17814 54.606C2.2317 54.3276 2.28526 54.0311 2.33882 53.7437Z" fill="#030422"/>
<path d="M75.7146 63.6606L75.0451 63.6427C75.0362 63.9391 75.0273 64.2265 75.0005 64.514L75.67 64.5769C75.6968 64.2804 75.7146 63.975 75.7146 63.6606Z" fill="#030422"/>
<path d="M72.0281 71.4217L72.528 71.8709C72.9743 71.3678 73.376 70.8289 73.733 70.263L73.1707 69.9037C72.8315 70.4336 72.4476 70.9457 72.0281 71.4217Z" fill="#030422"/>
<path d="M69.0999 73.8291L69.4391 74.413C70.0193 74.0716 70.5727 73.6854 71.0815 73.2632L70.662 72.7422C70.171 73.1374 69.6444 73.5057 69.0999 73.8291Z" fill="#030422"/>
<path d="M74.0632 68.2149L74.6792 68.4844C74.947 67.8735 75.1612 67.2268 75.3308 66.58L74.6792 66.4094C74.5185 67.0202 74.3132 67.631 74.0632 68.2149Z" fill="#030422"/>
<path d="M74.9468 24.46H74.2773V26.2565H74.9468V24.46Z" fill="#030422"/>
<path d="M74.9468 20.8759H74.2773V22.6724H74.9468V20.8759Z" fill="#030422"/>
<path d="M74.9468 28.0531H74.2773V29.8496H74.9468V28.0531Z" fill="#030422"/>
<path d="M74.9468 31.6552H74.2773V33.4517H74.9468V31.6552Z" fill="#030422"/>
</svg>
